<?xml version="1.0" encoding="UTF-8" standalone="no"?>
<!-- Created with Inkscape (http://www.inkscape.org/) -->

<svg
   xmlns:dc="http://purl.org/dc/elements/1.1/"
   xmlns:cc="http://creativecommons.org/ns#"
   xmlns:rdf="http://www.w3.org/1999/02/22-rdf-syntax-ns#"
   xmlns:svg="http://www.w3.org/2000/svg"
   xmlns="http://www.w3.org/2000/svg"
   xmlns:sodipodi="http://sodipodi.sourceforge.net/DTD/sodipodi-0.dtd"
   xmlns:inkscape="http://www.inkscape.org/namespaces/inkscape"
   version="1.1"
   id="svg2"
   width="250"
   height="250"
   viewBox="0 0 250 250"
   sodipodi:docname="tokenpay-vertical.svg"
   inkscape:version="0.92.3 (2405546, 2018-03-11)">
  <metadata
     id="metadata8">
    <rdf:RDF>
      <cc:Work
         rdf:about="">
        <dc:format>image/svg+xml</dc:format>
        <dc:type
           rdf:resource="http://purl.org/dc/dcmitype/StillImage" />
        <dc:title></dc:title>
      </cc:Work>
    </rdf:RDF>
  </metadata>
  <defs
     id="defs6" />
  <sodipodi:namedview
     pagecolor="#ffffff"
     bordercolor="#666666"
     borderopacity="1"
     objecttolerance="10"
     gridtolerance="10"
     guidetolerance="10"
     inkscape:pageopacity="0"
     inkscape:pageshadow="2"
     inkscape:window-width="1535"
     inkscape:window-height="904"
     id="namedview4"
     showgrid="false"
     inkscape:zoom="0.944"
     inkscape:cx="125"
     inkscape:cy="125"
     inkscape:window-x="67"
     inkscape:window-y="27"
     inkscape:window-maximized="0"
     inkscape:current-layer="svg2" />
  <path
     inkscape:connector-curvature="0"
     id="path3731"
     d="M -1.0593202,123.94068 V -1.059322 h 125.0000002 125 v 125.000002 125 h -125 -125.0000002 z"
     style="fill:#fdfdfd" />
  <path
     inkscape:connector-curvature="0"
     id="path3729"
     d="M 104.94068,247.43615 C 77.707614,242.9581 51.432481,229.08744 33.19209,209.56001 1.2186665,175.33055 -9.1885464,126.55207 6.177014,82.940678 19.854784,44.119671 52.713571,13.297645 90.94068,3.4311091 c 19.2004,-4.9556831 41.71364,-5.5944397 59.60848,-1.6912411 36.50167,7.961697 68.38714,32.938938 85.32173,66.836142 4.46633,8.940048 8.29042,19.814844 10.73474,30.527038 2.3411,10.259862 2.3411,39.415402 0,49.675262 -5.86289,25.694 -16.47465,45.07331 -34.61433,63.21299 -15.3931,15.39309 -30.37973,24.66723 -49.85949,30.85443 -17.94104,5.69846 -39.78838,7.45202 -57.19113,4.59042 z m 48.27735,-11.80755 c 44.0194,-11.6453 77.58307,-48.67517 84.78382,-93.53964 1.37137,-8.54438 1.37137,-27.75218 0,-36.29656 C 235.33264,89.161785 227.8448,70.706843 218.18095,56.940678 212.08601,48.258434 198.04604,34.564821 189.1514,28.627273 178.88204,21.772036 164.572,15.254901 153.21803,12.26235 140.11012,8.8075148 116.76748,7.9078842 103.73087,10.355104 61.677621,18.249304 27.900727,47.424387 14.538706,87.395608 6.9015712,110.24137 6.9878754,138.03416 14.767083,160.94068 c 13.256828,39.03582 44.931131,67.00594 86.173597,76.09593 12.92539,2.8488 38.82315,2.15128 52.27735,-1.40801 z m -43.77735,-3.33064 C 60.282431,224.57564 22.298324,186.42447 15.859482,138.30519 9.3458188,89.62674 37.361847,41.472543 83.048532,22.820056 97.546036,16.901165 105.6394,15.477725 124.44068,15.540105 c 15.05233,0.04994 18.11198,0.354658 26.70581,2.659679 38.44393,10.311358 68.13408,39.993441 78.55644,78.535082 2.3631,8.738714 2.62462,11.449544 2.62462,27.205814 0,15.75627 -0.26152,18.4671 -2.62462,27.20581 -10.42922,38.56702 -40.41947,68.5211 -78.55644,78.46167 -7.73474,2.0161 -12.65049,2.59396 -24.20581,2.84547 -7.975,0.17359 -15.85,0.10354 -17.5,-0.15567 z m 56.84669,-44.35948 3.68941,-16.0022 -2.47149,-4.7478 c -1.40211,-2.69349 -2.49163,-3.95768 -2.51805,-2.92171 -0.0256,1.00435 -1.69867,8.99185 -3.71792,17.75 l -3.67136,15.92391 h -24.11854 c -26.10717,0 -31.90485,-0.79799 -40.434696,-5.56541 -2.424501,-1.35508 -4.579866,-2.2921 -4.7897,-2.08227 -0.67588,0.67588 6.61682,6.57191 10.714136,8.66221 8.26377,4.21586 13.30301,4.85072 39.05016,4.91966 l 24.57864,0.0658 z m -13.40823,-8.7478 c 1.20176,-5.3625 2.58382,-10.9875 3.07126,-12.5 l 0.88624,-2.75 H 140.839 c -20.4485,0 -23.89832,-1.48505 -23.89832,-10.28757 0,-2.64193 5.79814,-31.00887 10.51881,-51.46243 0.51518,-2.232182 0.66387,-2.250002 18.77015,-2.250002 h 18.25085 l 2.29541,-10.391749 c 1.26247,-5.715461 2.5147,-11.227961 2.78274,-12.25 0.46332,-1.766691 -0.35942,-1.842608 -16.69783,-1.540766 -9.45184,0.174616 -17.58705,-0.0844 -18.07824,-0.575599 -0.52412,-0.524112 0.4958,-6.955724 2.46867,-15.567485 L 140.613,44.940678 H 126.00715 111.4013 l -2.85665,13.25 C 104.22324,78.234717 106.6722,76.102586 88.24842,75.861102 L 72.55461,75.655401 70.23194,86.048039 c -1.277469,5.715952 -2.570928,11.180139 -2.874353,12.142639 -0.509815,1.61719 0.673717,1.75 15.595161,1.75 H 99.09959 l -0.680302,3.250002 c -0.374167,1.7875 -3.334922,15.38724 -6.579456,30.22164 -3.262105,14.91475 -5.899152,29.45998 -5.899152,32.53812 0,10.51396 6.617324,18.58612 17.67233,21.55761 3.19106,0.85774 11.98975,1.32052 25.9544,1.36514 l 21.12672,0.0675 2.18501,-9.75 z m -17.2617,-44.25 c 2.35815,-10.725 4.29558,-19.60235 4.30539,-19.72744 0.01,-0.12509 8.18919,-0.35009 18.17638,-0.5 l 18.15853,-0.27256 3.74298,-15.481512 3.74298,-15.481507 -2.25133,-4.429879 -2.25132,-4.42988 -3.23592,13.911388 c -1.77976,7.651263 -3.56307,15.26139 -3.96292,16.91139 l -0.727,3 -18.17386,0.27251 c -17.86397,0.26786 -18.18285,0.31049 -18.701,2.5 -3.09286,13.06923 -8.49967,39.36626 -8.49967,41.33969 0,2.14885 0.39745,2.47397 2.6946,2.20422 2.65233,-0.31146 2.76187,-0.62233 6.98216,-19.81642 z M 87.333691,113.35889 c 1.620073,-4.22184 1.118811,-4.41938 -11.143011,-4.39131 l -11.75,0.0269 3.5,2.9462 c 3.197791,2.69181 4.159939,2.94852 11.143011,2.9731 6.063848,0.0213 7.768425,-0.29992 8.25,-1.55489 z M 151.28598,65.190678 c 2.71734,-9.90548 2.77615,-11.721204 0.54316,-16.769252 l -2.20134,-4.976482 -1.79522,8.497867 c -3.52054,16.664861 -3.5127,14.997867 -0.0706,14.997867 2.04941,0 3.20075,-0.571757 3.52398,-1.75 z"
     style="fill:#b5c5de" />
  <path
     inkscape:connector-curvature="0"
     id="path3727"
     d="M 109.94068,247.98137 C 34.578192,238.27974 -14.973047,166.86303 3.0622231,93.940678 19.704818,26.649355 89.0493,-14.451502 155.75544,3.4385679 202.0332,15.849907 235.77039,51.476308 246.19321,98.940678 c 2.80446,12.771212 2.94848,35.539812 0.30677,48.500002 -11.80703,57.9253 -59.71258,98.80118 -118.30756,100.94708 -6.46346,0.2367 -14.67674,0.0538 -18.25174,-0.40639 z m 26.66562,-9.10968 c 26.17862,-2.91909 50.1982,-14.51865 68.95398,-33.29931 C 257.87723,153.186 248.73345,67.007919 186.59437,26.822962 134.60087,-6.8009104 65.684704,6.5970261 29.451775,57.372926 20.127114,70.440268 12.714824,88.439062 9.8623528,104.94068 c -1.6631696,9.62148 -1.6631696,28.37852 0,38 7.8537042,45.43388 41.1994142,81.5797 85.8802482,93.09181 14.212359,3.66184 26.087069,4.48689 40.863699,2.8392 z m -29.83012,-7.47443 C 78.288347,226.95958 50.414405,209.19932 33.998669,185.02607 4.4116515,141.45726 10.398015,82.962576 48.197671,46.283054 58.037532,36.734783 66.026264,31.191076 78.318073,25.38128 118.78021,6.2566131 167.19098,14.345414 199.25665,45.588519 c 44.1337,43.001545 44.83929,112.004011 1.58759,155.255721 -24.68569,24.68569 -59.38467,35.95581 -94.06806,30.55302 z m 59.59448,-42.84743 3.76017,-16.39085 -2.24687,-4.85915 c -1.30015,-2.81175 -2.41451,-4.22713 -2.64475,-3.35915 -0.21884,0.825 -2.07371,8.7 -4.12195,17.5 l -3.72406,16 h -25.47626 c -27.65055,0 -32.67033,-0.76731 -40.709385,-6.22277 -5.325503,-3.61398 -4.950248,-2.07698 0.742529,3.04132 5.542562,4.98324 13.175196,8.32991 21.941196,9.62053 3.05217,0.44937 15.26261,0.87191 27.1343,0.93898 l 21.58491,0.12194 z m -15.4127,0.64085 c 0.01,-0.4125 1.29966,-6.2625 2.86701,-13 l 2.84974,-12.25 -14.61702,-0.006 c -8.03935,-0.003 -16.30379,-0.47402 -18.36541,-1.04656 -3.99784,-1.10984 -6.7516,-4.85835 -6.7516,-9.19009 0,-1.28809 2.47485,-13.57293 5.49967,-27.29966 3.02482,-13.72673 5.49982,-25.06004 5.5,-25.18513 1.8e-4,-0.12509 8.20315,-0.35009 18.22881,-0.5 l 18.22848,-0.27256 2.74372,-11.500002 c 1.50904,-6.325 2.75622,-12.0625 2.77152,-12.75 0.0212,-0.954902 -4.23751,-1.25 -18.03959,-1.25 -17.04704,0 -18.03461,-0.103257 -17.48708,-1.828387 0.31917,-1.005614 1.8413,-7.643114 3.38251,-14.75 l 2.8022,-12.921613 -14.45426,-0.27753 c -7.94984,-0.152641 -14.59153,-0.14025 -14.75932,0.02754 -0.16779,0.167786 -1.74204,6.919324 -3.49834,15.003417 l -3.19328,14.698348 -16.091172,0.274113 -16.091175,0.274112 -2.743542,11.5 c -1.508948,6.325 -2.756053,12.0823 -2.771346,12.794 -0.02171,1.010282 3.425481,1.266372 15.722195,1.168002 12.60105,-0.10082 15.711128,0.1403 15.555575,1.20599 -0.106934,0.73261 -2.726315,13.03201 -5.820846,27.33201 -7.878182,36.40551 -7.690152,35.19351 -6.413775,41.34178 1.96467,9.46377 10.787106,16.30629 23.429046,18.17114 6.69563,0.9877 41.49541,1.18642 41.51728,0.23708 z m -17.08317,-45 c 1.24738,-5.9125 3.16051,-14.6775 4.25139,-19.47777 l 1.98344,-8.72777 18.13189,-0.27223 18.1319,-0.27223 3.7288,-15.895612 3.7288,-15.895616 -2.31442,-4.554017 c -2.68601,-5.285189 -2.10528,-6.416262 -6.59509,12.845243 -1.73075,7.425 -3.36161,14.277452 -3.62412,15.227672 -0.42619,1.54267 -2.41912,1.75684 -18.61049,2 l -18.13319,0.27233 -4.24139,19.5 c -6.29064,28.92145 -6.05649,26 -2.08387,26 h 3.37839 z m -46.93411,-28.5066 c 0,-0.14113 0.418587,-1.71613 0.930194,-3.5 l 0.930195,-3.2434 H 76.230144 63.659219 l 4.39073,3.49029 c 4.099925,3.25913 4.870912,3.49094 11.640731,3.5 3.9875,0.005 7.25,-0.10576 7.25,-0.24689 z m 65.86327,-56.079211 c 1.40412,-6.610906 1.37632,-6.989263 -0.84481,-11.5 -1.26318,-2.565305 -2.44445,-4.214191 -2.62505,-3.664191 -0.71212,2.168673 -4.39341,19.988179 -4.39341,21.266539 0,0.929204 1.01573,1.26089 3.20569,1.046819 3.09838,-0.302868 3.25429,-0.542187 4.65758,-7.149167 z"
     style="fill:#97acd0" />
  <path
     inkscape:connector-curvature="0"
     id="path3725"
     d="M 112.59196,247.87731 C 102.34664,246.96898 96.556519,245.76567 85.44068,242.23473 76.668839,239.44835 62.01422,232.43768 54.948918,227.64768 42.215263,219.01475 28.797884,205.59698 20.24293,192.94068 11.88798,180.58027 4.6131542,162.35103 1.5126114,146.00629 -0.49322327,135.43239 -0.53321565,113.92018 1.4320111,102.65073 9.2048318,58.078077 40.898895,20.766881 83.252599,6.3290952 106.59312,-1.627363 132.0047,-2.6233068 155.55435,3.4954073 221.71447,20.685255 261.74724,88.981039 244.471,155.18694 c -11.55689,44.28822 -46.33132,78.69396 -90.53481,89.57495 -7.21208,1.7753 -28.30789,4.48032 -31.49551,4.03852 -0.55,-0.0762 -4.98192,-0.49163 -9.84872,-0.9231 z m 36.34872,-10.82326 c 20.98296,-4.7622 38.84107,-14.31305 54.41115,-29.10008 32.7021,-31.05746 44.48196,-76.37858 30.97854,-119.184911 C 224.98418,59.141327 202.85693,33.672078 174.50708,19.910339 129.4591,-1.9570941 77.906589,6.7971334 42.351862,42.35186 23.852161,60.851561 13.281346,81.72981 9.4913468,107.25415 c -1.9341588,13.02589 -1.9456778,20.48759 -0.05103,33.05769 3.9999552,26.53787 14.5403252,47.06113 33.9625582,66.12884 18.464052,18.12702 40.271268,28.90667 65.746215,32.4994 9.33617,1.31668 29.99422,0.33753 39.79159,-1.88603 z m -38.5,-5.24073 C 74.622308,227.33924 42.162543,204.04582 26.429772,171.52632 5.5478274,128.36352 14.970972,77.40112 49.901173,44.587903 92.841829,4.2497138 160.51531,5.8600637 201.5983,48.197669 c 17.90512,18.451913 27.64686,39.343212 30.53979,65.493011 2.63518,23.81996 -4.24458,50.70355 -18.2554,71.33539 -22.62191,33.31225 -63.45639,51.78185 -103.44201,46.78725 z m 55.41585,-39.99218 c 4.59917,-19.47208 4.63291,-19.88746 2.02845,-24.97005 -1.36979,-2.67313 -2.4475,-3.85838 -2.73597,-3.00897 -0.26178,0.7708 -2.14463,8.6458 -4.18411,17.5 l -3.70814,16.09856 -25.40804,-0.0497 c -23.83357,-0.0467 -25.81083,-0.19138 -31.90804,-2.33541 -3.575,-1.25711 -7.9625,-3.39513 -9.75,-4.75115 -4.822272,-3.65822 -3.935885,-1.25065 1.324854,3.59853 5.442084,5.01634 12.967046,8.65579 20.467816,9.89925 3.00153,0.49759 15.65368,0.95732 28.11589,1.02162 l 22.65855,0.1169 z m -12.45065,-13.13046 c 1.44802,-6.1875 2.8845,-12.2625 3.19219,-13.5 l 0.55943,-2.25 h -17.41985 c -25.73746,0 -25.32419,0.77392 -17.856,-33.43845 2.88881,-13.23385 5.48015,-25.06408 5.75855,-26.28939 0.49773,-2.19069 0.80876,-2.23238 18.65333,-2.5 l 18.14715,-0.27216 3.03745,-12.500002 3.03745,-12.5 -18.12982,-0.271486 -18.12983,-0.271485 3.28851,-14.699052 c 1.80867,-8.084479 3.18492,-14.802629 3.05833,-14.929224 -0.1266,-0.126595 -6.71257,-0.299261 -14.6355,-0.383703 -13.19477,-0.140629 -14.46263,0.0023 -15.08729,1.700709 -0.37508,1.019833 -1.96851,7.816741 -3.54094,15.104241 l -2.85898,13.25 H 88.396292 72.312518 l -2.688716,11.75 c -1.478795,6.4625 -2.687458,12.3125 -2.68592,13 0.0021,0.947232 3.836372,1.250002 15.829877,1.250002 h 15.827079 l -6.446252,28.75 c -8.660318,38.62464 -8.664621,43.78932 -0.04322,51.88001 7.170534,6.72914 14.108014,8.18516 39.501534,8.29049 l 19.16621,0.0795 z m -18.82407,-37.25 c 1.73571,-7.7 3.68343,-16.5875 4.32826,-19.75 l 1.17241,-5.75 h 17.87008 c 9.82855,0 18.08494,-0.34765 18.34755,-0.77255 0.2626,-0.4249 2.0789,-7.58959 4.03621,-15.921532 l 3.55874,-15.14898 -2.17179,-5.225911 c -2.64299,-6.359739 -2.43549,-6.76541 -7.32406,14.318971 l -3.65176,15.750002 -18.15338,0.003 -18.15339,0.003 -4.87618,22.60951 c -5.15542,23.90424 -5.1602,24.78465 -0.13118,24.13925 1.70532,-0.21886 2.44769,-2.27442 5.14849,-14.25573 z m -46.555552,-29.25 0.661823,-3.25 H 76.147714 c -6.897202,0 -12.300235,0.24013 -12.00674,0.53363 0.293495,0.29349 2.280995,1.86626 4.416667,3.49504 3.598138,2.74413 4.430521,2.94343 11.344917,2.71637 l 7.461877,-0.24504 z M 152.95155,59.883062 c 1.27586,-6.761775 1.23436,-7.25431 -0.9899,-11.75 l -2.32158,-4.692384 -0.80237,3 c -0.4413,1.65 -1.6748,6.9375 -2.7411,11.75 l -1.93874,8.75 h 3.73101 3.731 z"
     style="fill:#6f8dc0" />
  <path
     inkscape:connector-curvature="0"
     id="path3723"
     d="M 101.53776,246.33405 C 78.120716,242.10526 56.145066,230.81412 38.534532,213.96285 13.643188,190.14467 1.3407415,162.67554 0.2321965,128.44068 -0.92193779,92.797897 10.072277,63.455195 33.918512,38.53453 52.911213,18.686082 76.280282,6.0306312 102.32605,1.4886295 c 11.37641,-1.9838808 31.85285,-1.9838808 43.22926,0 51.24075,8.9356395 90.97013,48.4967425 100.81344,100.3864405 2.05299,10.82248 2.06659,33.16796 0.0269,44.20514 -9.48373,51.31854 -49.78543,91.40929 -100.84035,100.31252 -11.02192,1.92206 -33.21296,1.89248 -44.01755,-0.0587 z m 41.02193,-7.90703 c 46.49794,-7.925 83.10365,-42.12425 94.64011,-88.41846 2.93528,-11.77889 3.14443,-38.65504 0.39352,-50.567882 C 226.86178,52.967673 189.59649,17.561561 142.98811,9.55535 112.84986,4.3783171 79.238718,12.503674 54.909012,30.848112 46.602522,37.111151 33.547289,50.68458 28.064946,58.757688 -2.5262402,103.80521 2.3986423,163.83576 39.927392,203.35183 c 17.919639,18.86857 42.734761,31.90969 67.513288,35.48035 9.73155,1.40234 25.58721,1.21942 35.11901,-0.40516 z m -28.61901,-6.57228 c -45.06764,-3.8547 -82.952593,-36.17588 -95.220906,-81.23678 -1.926895,-7.0774 -2.22635,-10.66562 -2.22635,-26.67728 0,-16.01166 0.299455,-19.59988 2.22635,-26.677278 12.348801,-45.356534 50.041686,-77.370008 95.624266,-81.215991 33.80422,-2.852195 65.26841,8.96784 88.22898,33.14466 39.89262,42.005772 39.89262,107.491449 0,149.497219 -22.96306,24.17944 -54.72743,36.06539 -88.63234,33.16545 z m 49.51686,-29.16406 c 0.30523,-1.2375 2.02292,-8.56796 3.81709,-16.2899 l 3.26212,-14.03991 -2.50327,-5.46009 -2.50328,-5.4601 -3.38461,14.5 c -1.86154,7.975 -3.8261,16.24162 -4.36569,18.37027 l -0.98108,3.87027 -24.67907,-0.52106 c -25.18953,-0.53184 -30.40859,-1.24053 -38.17907,-5.18429 -1.925,-0.977 -4.290259,-2.46934 -5.256131,-3.31631 -0.965872,-0.84698 -1.971503,-1.32458 -2.234736,-1.06135 -0.957478,0.95748 8.11466,9.11375 12.763527,11.475 8.71474,4.42639 14.52595,5.19487 39.95829,5.28416 l 23.73095,0.0833 z m -12.12125,-14.5 c 0.91616,-3.02283 5.60439,-23.38281 5.60439,-24.33866 0,-0.5126 -7.41375,-0.91134 -16.94424,-0.91134 -16.43181,0 -17.0284,-0.0724 -19.72727,-2.39387 -3.88017,-3.33758 -3.69469,-5.78477 2.64191,-34.85613 l 5.39468,-24.75 h 18.17683 18.17682 l 2.77235,-11.750002 c 1.52479,-6.4625 2.98622,-12.3125 3.24762,-13 0.36938,-0.971476 -3.55931,-1.25 -17.63171,-1.25 -11.02048,0 -18.10699,-0.379297 -18.10699,-0.969156 0,-0.533035 1.35,-7.145705 3,-14.694821 1.65,-7.549116 3,-14.087996 3,-14.530844 0,-0.442849 -6.71931,-0.805179 -14.93179,-0.805179 H 111.0771 l -1.68589,7.75 c -0.92723,4.2625 -2.43759,11.125 -3.35635,15.25 l -1.67046,7.5 -16.127882,0.274369 -16.127885,0.274368 -2.084828,9.05486 C 68.87715,89.024447 67.656847,94.863481 67.31202,97.019906 l -0.626956,3.920774 h 15.627808 c 9.37058,0 15.627808,0.38625 15.627808,0.96469 0,0.53059 -2.959707,14.36809 -6.577127,30.75 -7.323604,33.16582 -7.573262,36.94023 -2.963681,44.80589 2.994687,5.11005 9.260941,9.20786 16.924318,11.06764 3.13391,0.76055 12.937,1.27464 25.2991,1.32673 18.39609,0.0775 20.22956,-0.0699 20.713,-1.66495 z m -19.49483,-34.5 c 0.4682,-1.2375 2.55995,-10.2375 4.64833,-20 l 3.79705,-17.75 h 18.15697 18.15696 l 3.80273,-16.276462 3.80272,-16.276464 -2.54886,-4.973538 c -1.63953,-3.19919 -2.72643,-4.438401 -3.0466,-3.473538 -0.27375,0.825 -2.22401,8.7 -4.33391,17.5 l -3.83617,16.000002 -18,0.17613 -18,0.17613 -4.85094,22.08964 c -2.66801,12.14931 -4.59463,22.75755 -4.28138,23.57387 0.91615,2.38746 5.54538,1.84485 6.5331,-0.76577 z m -44.381279,-39 c 0.251202,-0.6875 0.574579,-2.28229 0.718615,-3.54397 0.259338,-2.27166 0.142796,-2.29597 -11.988292,-2.5 -6.737597,-0.11332 -12.250097,0.0352 -12.25,0.32997 9.7e-5,0.2948 1.881979,1.9823 4.181961,3.75 3.835442,2.94781 4.790493,3.214 11.531385,3.214 4.969423,0 7.497513,-0.40481 7.806331,-1.25 z M 153.06944,60.190678 c 1.34288,-6.342637 1.30668,-7.03524 -0.59982,-11.476432 -1.11592,-2.599537 -2.3295,-4.737037 -2.69685,-4.75 -0.36735,-0.01296 -1.63948,4.363932 -2.82694,9.726432 -1.18747,5.3625 -2.37973,10.5375 -2.64948,11.5 -0.40701,1.452304 0.17592,1.75 3.42676,1.75 h 3.9172 z"
     style="fill:#4f73b2" />
  <path
     inkscape:connector-curvature="0"
     id="path3721"
     d="M 102.94068,246.4261 C 76.375198,241.39225 54.906237,230.15987 36.313863,211.5675 2.6798922,177.93353 -8.6940057,129.48302 6.4302159,84.269191 13.152223,64.173767 21.385355,51.188278 37.388739,35.440678 49.670949,23.354776 60.078936,16.239356 74.662508,9.958467 102.00659,-1.8181511 134.69064,-3.2910062 163.04737,5.9755419 c 42.9123,14.0230881 75.58967,51.8530641 83.32617,96.4651381 1.99903,11.52729 1.99903,31.47271 0,43 -8.37156,48.27416 -44.6197,86.99884 -92.8012,99.14154 -12.73853,3.21037 -38.47411,4.14759 -50.63166,1.84388 z m 47.73168,-9.38152 c 43.06327,-10.80226 74.29028,-41.85707 86.55039,-86.0731 1.78864,-6.45073 2.08812,-10.3275 2.08812,-27.0308 0,-16.7033 -0.29948,-20.58007 -2.08812,-27.0308 C 230.27485,71.852309 217.85212,51.609121 200.01525,36.279214 185.81069,24.0711 170.91992,16.270998 152.01445,11.13538 143.29612,8.7670705 140.78765,8.5368344 123.94068,8.5586754 107.20524,8.5803717 104.51838,8.8307467 95.771141,11.183658 53.923335,22.440252 22.206091,54.245456 11.248525,95.940678 7.854982,108.85363 7.0220447,129.46937 9.3535778,142.84185 14.8802,174.53972 33.224169,202.71066 59.891334,220.45298 c 14.355677,9.55118 27.294789,14.82608 44.284196,18.05339 10.64105,2.02137 35.75925,1.23169 46.49683,-1.46179 z m -46.39754,-6.58462 C 75.810997,225.2953 48.567092,207.12192 33.113795,182.99112 27.627851,174.42466 22.20051,162.05601 19.21265,151.3111 c -2.512344,-9.03486 -2.744689,-11.35185 -2.744689,-27.37042 0,-16.01857 0.232345,-18.33556 2.744689,-27.370425 6.750912,-24.27756 20.203775,-44.550199 38.924304,-58.656541 14.174477,-10.680789 31.832441,-18.246766 49.007086,-20.998257 10.9556,-1.755159 33.08482,-0.782271 43.12681,1.896025 39.19041,10.452456 68.25642,39.224659 78.73502,77.939136 1.50719,5.568492 2.22612,11.966282 2.60593,23.190062 0.45004,13.29936 0.2216,16.96695 -1.60902,25.83232 -8.95306,43.35827 -42.60534,76.36459 -86.31246,84.65569 -9.6375,1.8282 -29.42561,1.8439 -39.4155,0.0313 z m 62.77906,-42.22747 3.74657,-16.20819 -2.48572,-5.15264 c -1.36714,-2.83396 -2.68325,-4.95511 -2.92469,-4.71368 -0.33614,0.33614 -8.45436,34.02679 -8.44798,35.05913 7.6e-4,0.12296 -12.03674,-0.0188 -26.75,-0.31507 -24.2654,-0.48858 -27.24475,-0.73729 -32.060463,-2.67637 -2.919996,-1.17576 -6.857496,-3.31877 -8.75,-4.76226 -4.809687,-3.66852 -4.291071,-1.58103 0.945915,3.80744 9.695978,9.97643 16.536048,11.57493 48.546488,11.34519 l 24.43331,-0.17536 z m -12.92585,-10.79181 c 1.52307,-6.6 2.77898,-12.5625 2.79093,-13.25 0.0165,-0.95145 -4.00639,-1.25 -16.84342,-1.25 -15.54781,0 -17.07095,-0.16189 -19.5,-2.07258 -3.81119,-2.99788 -3.5478,-6.60582 2.56772,-35.17326 l 5.29742,-24.74584 18.13552,-0.004 18.13552,-0.004 2.7102,-11.250002 c 1.49061,-6.1875 2.92245,-12.0375 3.18187,-13 0.43649,-1.619498 -0.87567,-1.75 -17.59572,-1.75 -9.93707,0 -18.05998,-0.3375 -18.05092,-0.75 0.009,-0.4125 1.35905,-6.818368 3,-14.235263 1.64094,-7.417214 2.98353,-14.054714 2.98353,-14.75032 0,-0.963185 -3.56039,-1.264737 -14.93261,-1.264737 -13.36803,0 -14.984,0.183358 -15.42306,1.75 -0.26975,0.9625 -1.46307,6.25 -2.65183,11.75 -1.18876,5.5 -2.59073,11.6875 -3.11549,13.75 l -0.9541,3.75 H 87.969524 c -14.284246,0 -15.9436,0.177248 -16.383096,1.75 -0.268964,0.9625 -1.447216,6.025 -2.618337,11.25 -1.171121,5.225 -2.361708,10.2875 -2.645749,11.25 -0.476741,1.615482 0.718605,1.750002 15.55095,1.750002 8.837064,0 16.067388,0.21969 16.067388,0.4882 0,0.26851 -2.925,13.85968 -6.5,30.2026 -3.575,16.34292 -6.5,31.58108 -6.5,33.86258 0,8.10187 3.633347,14.92753 10.128652,19.02783 7.201198,4.54592 12.574848,5.32357 35.330418,5.11286 l 20.95907,-0.19407 z m -20.83341,-28.25 c 0.83283,-3.7125 2.7814,-12.71154 4.33015,-19.99786 l 2.81591,-13.24786 18.15339,-0.002 18.15338,-0.002 3.60704,-15.25 c 1.98387,-8.387502 3.60235,-15.755299 3.59662,-16.372884 -0.0189,-2.035665 -4.08419,-10.377398 -5.05722,-10.377398 -0.52427,0 -0.941,0.5625 -0.92608,1.25 0.0149,0.6875 -1.63968,8.3375 -3.67688,17 l -3.704,15.750002 h -17.76411 c -9.77026,0 -18.00446,0.38889 -18.29822,0.86421 -0.86786,1.40423 -9.58392,42.0676 -9.58392,44.71225 0,2.09227 0.46745,2.42354 3.41985,2.42354 3.40581,0 3.42606,-0.0277 4.93409,-6.75 z m -45.35394,-34.125 c 0,-0.48125 0.28125,-2.28125 0.625,-4 l 0.625,-3.125 -13.375,0.0298 -13.375,0.0298 4.5,3.94032 c 4.450562,3.89703 4.590637,3.94064 12.75,3.97016 4.5375,0.0164 8.25,-0.36391 8.25,-0.84516 z m 65.25876,-54.890958 1.75876,-7.265956 -2.57599,-5.083478 c -1.4168,-2.795913 -2.7688,-4.890674 -3.00445,-4.655024 -0.45389,0.453889 -5.43708,22.434099 -5.43708,23.982256 0,0.499889 1.6875,0.769224 3.75,0.598523 l 3.75,-0.310365 z"
     style="fill:#2b56a6" />
  <path
     inkscape:connector-curvature="0"
     id="path3719"
     d="m 120.19068,247.21221 c 2.0625,-0.21574 5.4375,-0.21574 7.5,0 2.0625,0.21575 0.375,0.39226 -3.75,0.39226 -4.125,0 -5.8125,-0.17651 -3.75,-0.39226 z m -12.4375,-0.95464 c 0.72187,-0.28887 1.58437,-0.25335 1.91667,0.0789 0.33229,0.33229 -0.25834,0.56864 -1.3125,0.52522 -1.16495,-0.048 -1.4019,-0.28494 -0.60417,-0.60416 z m -20,-4 c 0.721875,-0.28887 1.584375,-0.25335 1.916667,0.0789 0.332291,0.33229 -0.258334,0.56864 -1.3125,0.52522 -1.164943,-0.048 -1.4019,-0.28494 -0.604167,-0.60416 z m 28.9375,-2.0594 c 3.9875,-0.18981 10.5125,-0.18981 14.5,0 3.9875,0.18982 0.725,0.34512 -7.25,0.34512 -7.975,0 -11.2375,-0.1553 -7.25,-0.34512 z m -20.662857,-2.30874 c -4.077072,-1.06762 -7.677072,-2.23429 -8,-2.59259 -0.322929,-0.3583 0.537857,-0.3354 1.912857,0.0509 1.375,0.3863 6.325,1.54608 11,2.57729 4.675,1.03122 7.15,1.88182 5.5,1.89024 -1.65,0.008 -6.33579,-0.85821 -10.412857,-1.92583 z m 51.372077,0.0234 c 4.92757,-1.0379 9.12178,-1.72452 9.32048,-1.52582 0.54172,0.54172 -13.32266,3.56438 -15.97711,3.48327 -1.26642,-0.0387 1.72906,-0.91955 6.65663,-1.95745 z m -72.45922,0.0278 c -0.825,-0.53316 -1.05,-0.96937 -0.5,-0.96937 0.55,0 1.675,0.43621 2.5,0.96937 0.825,0.53316 1.05,0.96937 0.5,0.96937 -0.55,0 -1.675,-0.43621 -2.5,-0.96937 z m -7.55887,-3.55517 c -1.830306,-1.46637 -1.798398,-1.48719 0.55887,-0.36454 3.061032,1.45781 3.628339,1.91971 2.357796,1.91971 -0.536545,0 -1.849045,-0.69982 -2.916666,-1.55517 z m 109.6422,1.19062 c 0.22917,-0.2005 1.54167,-0.90032 2.91667,-1.55516 2.35727,-1.12265 2.38918,-1.10183 0.55887,0.36454 -1.593,1.27626 -4.84786,2.39128 -3.47554,1.19062 z M 79.94068,232.5582 C 49.653204,219.90388 25.849003,195.40335 14.244918,164.94068 c -1.780839,-4.675 -3.23035,-9.175 -3.221136,-10 0.0092,-0.825 1.528858,2.66408 3.376986,7.75351 8.500974,23.41024 24.651715,44.20937 44.673997,57.53173 7.414494,4.93344 12.085047,7.366 25.865915,13.47175 4.80945,2.13087 0.448961,1.13715 -5,-1.13947 z m 94.5,-3.97703 c 30.6842,-15.41816 53.17247,-42.36122 61.88765,-74.1472 1.35619,-4.94631 2.49878,-8.30925 2.53908,-7.47319 0.1627,3.37541 -4.3145,17.02789 -8.46082,25.79987 -11.42072,24.16172 -29.98548,43.55273 -52.98446,55.3426 -4.9398,2.53226 -10.10645,4.91936 -11.48145,5.30465 -1.375,0.38529 2.45,-1.78674 8.5,-4.82673 z m -64.5,2.6934 c -6.20707,-0.9776 -17.1195,-3.54772 -16.727511,-3.93971 0.238461,-0.23846 3.537204,0.30911 7.330541,1.21682 3.79333,0.90772 13.42197,1.96884 21.39697,2.35805 l 14.5,0.70765 -12,0.0255 c -6.6,0.014 -13.125,-0.15172 -14.5,-0.36828 z m 35.5,-2.36587 c 21.55266,-4.52906 37.44228,-12.9779 53.24301,-28.3104 12.21532,-11.85334 19.93103,-23.7143 26.4483,-40.65762 1.58669,-4.125 2.60736,-6.15 2.26816,-4.5 -1.01207,4.92304 -6.14732,16.512 -10.86022,24.50876 -10.12649,17.18242 -25.45271,31.27018 -44.09925,40.53574 -10.65293,5.29349 -27.52274,10.54228 -33.37822,10.38514 -1.44198,-0.0387 1.42822,-0.92143 6.37822,-1.96162 z m 41.5,1.76251 c 1.11386,-1.20381 16,-11.61003 16,-11.18487 0,0.58582 -11.80093,9.28829 -14.47789,10.67657 -1.11216,0.57678 -1.79711,0.80551 -1.52211,0.5083 z m -99,-4.73053 c -1.827966,-1.18132 -0.249085,-1.18132 2.5,0 1.31874,0.56668 1.489055,0.87815 0.5,0.9144 -0.825,0.0302 -2.175,-0.38124 -3,-0.9144 z m -38.127555,-2.75 c -1.243871,-1.58606 -1.208501,-1.62143 0.377555,-0.37756 0.9625,0.75485 1.75,1.54235 1.75,1.75 0,0.82304 -0.821186,0.29331 -2.127555,-1.37244 z m 26.574658,-2.1345 c -14.815295,-7.24164 -28.717,-18.61185 -38.341737,-31.35972 -4.5179,-5.98391 -13.113108,-20.57862 -13.092754,-22.23157 0.0069,-0.56331 1.919437,2.45674 4.25,6.71123 11.563282,21.109 28.683402,37.29315 50.062911,47.32595 3.945962,1.85172 6.700673,3.38294 6.12158,3.40269 -0.579094,0.0198 -4.629094,-1.71211 -9,-3.84858 z m -36.68595,-6.13106 c -7.34237,-6.76554 -15.469904,-16.23787 -19.292293,-22.48444 -2.630843,-4.29934 -0.740659,-2.14579 5.974427,6.80687 3.220619,4.29378 9.495679,11.15628 13.944578,15.25 4.448899,4.09372 7.840976,7.44313 7.537949,7.44313 -0.303028,0 -3.977125,-3.157 -8.164661,-7.01556 z m 172.379917,-4.48623 c 9.51432,-10.13886 15.38265,-18.30037 21.56946,-29.99821 4.90119,-9.26703 5.80212,-9.44055 1.14997,-0.22148 -5.3498,10.60161 -12.87847,20.8463 -22.2093,30.22148 l -8.95743,9 z m -103.8904,-6.04335 c -9.489155,-2.55521 -19.657606,-9.31194 -22.376313,-14.86861 -0.561406,-1.14744 0.629216,-0.16809 2.645826,2.17632 3.920319,4.55757 9.306545,8.11336 16.512587,10.901 3.66608,1.41822 9.3094,1.83677 31.46723,2.33385 l 27,0.6057 -25,0.13263 c -18.74988,0.0995 -26.31236,-0.22076 -30.24933,-1.28089 z m 55.85804,-1.45486 c -0.0386,-0.825 0.55595,-3.75 1.32116,-6.5 0.76521,-2.75 1.42285,-4.325 1.46142,-3.5 0.0386,0.825 -0.55595,3.75 -1.32116,6.5 -0.76521,2.75 -1.42285,4.325 -1.46142,3.5 z m -59.94873,-7.18374 c -2.387,-0.53326 -4.14017,-1.1694 -3.89592,-1.41365 0.24425,-0.24425 2.6633,0.0318 5.37567,0.61355 2.91431,0.625 14.42783,0.94028 28.14678,0.77074 12.76835,-0.1578 23.2148,0.0506 23.21433,0.4631 -0.001,1.09834 -47.73678,0.70651 -52.84086,-0.43374 z m -8.15998,-2.81626 c -0.825,-0.53316 -1.05,-0.96937 -0.5,-0.96937 0.55,0 1.675,0.43621 2.5,0.96937 0.825,0.53316 1.05,0.96937 0.5,0.96937 -0.55,0 -1.675,-0.43621 -2.5,-0.96937 z m 61.10871,0 c -0.0386,-0.825 0.55595,-3.75 1.32116,-6.5 0.76521,-2.75 1.42285,-4.325 1.46142,-3.5 0.0386,0.825 -0.55595,3.75 -1.32116,6.5 -0.76521,2.75 -1.42285,4.325 -1.46142,3.5 z m -66.35871,-2.57197 c -1.5125,-0.82055 -2.75,-1.70253 -2.75,-1.95997 0,-0.96593 1.580503,-0.36062 4,1.53194 2.971865,2.32463 2.52686,2.47701 -1.25,0.42803 z M 106.1191,190.091 c -2.21088,-0.61931 34.48405,-0.43855 41.82158,0.20602 1.925,0.1691 -6.175,0.33824 -18,0.37588 -11.825,0.0376 -22.54471,-0.22422 -23.82158,-0.5819 z m 60.93029,-0.15032 c -0.0386,-0.825 0.55595,-3.75 1.32116,-6.5 0.76521,-2.75 1.42285,-4.325 1.46142,-3.5 0.0386,0.825 -0.55595,3.75 -1.32116,6.5 -0.76521,2.75 -1.42285,4.325 -1.46142,3.5 z m -150.349168,-3.25 c -2.230238,-3.41252 -5.941208,-10.9021 -5.579303,-11.2603 0.175868,-0.17407 1.985332,2.79454 4.021029,6.59691 3.672418,6.8595 4.382665,8.98503 1.558274,4.66339 z m 135.319408,0.66667 c 0.048,-1.16495 0.28494,-1.4019 0.60416,-0.60417 0.28887,0.72187 0.25335,1.58437 -0.0789,1.91667 -0.3323,0.33229 -0.56864,-0.25834 -0.52522,-1.3125 z m -56.57895,-1.2937 C 87.536024,181.1376 83.863175,174.23116 84.091597,164.7228 l 0.150918,-6.28212 0.641592,7.63726 c 0.774415,9.21835 3.763287,14.45243 10.801918,18.9162 2.555419,1.6206 4.220615,2.94486 3.700435,2.9428 -0.520179,-0.002 -2.29578,-0.84503 -3.94578,-1.87329 z m 57.69936,-2.62297 c 0,-1.1 0.36029,-3.125 0.80064,-4.5 0.63397,-1.97958 0.80064,-2.08367 0.80064,-0.5 0,1.1 -0.36029,3.125 -0.80064,4.5 -0.63397,1.97958 -0.80064,2.08367 -0.80064,0.5 z m 6.90935,-3.5 c -0.0386,-0.825 0.55595,-3.75 1.32116,-6.5 0.76521,-2.75 1.42285,-4.325 1.46142,-3.5 0.0386,0.825 -0.55595,3.75 -1.32116,6.5 -0.76521,2.75 -1.42285,4.325 -1.46142,3.5 z m 10.37795,-4.81382 c 0.32125,-2.17764 -0.21658,-4.69661 -1.56866,-7.34691 -1.13164,-2.21819 -1.87744,-4.21316 -1.65734,-4.43327 0.22011,-0.2201 1.38313,1.73601 2.5845,4.34691 1.7711,3.84905 1.99214,5.31462 1.16847,7.74709 l -1.01585,3 z m -15.40771,-0.76951 c 0.048,-1.16495 0.28494,-1.4019 0.60416,-0.60417 0.28887,0.72187 0.25335,1.58437 -0.0789,1.91667 -0.3323,0.33229 -0.56864,-0.25834 -0.52522,-1.3125 z M 9.5642188,172.40202 c -0.9649789,-2.51469 -0.6803108,-3.16355 0.4985342,-1.13634 0.58369,1.00375 0.850598,2.03566 0.593129,2.29313 -0.257468,0.25747 -0.7487172,-0.26309 -1.0916632,-1.15679 z M 156.14004,170.44068 c 0,-1.1 0.36029,-3.125 0.80064,-4.5 0.63397,-1.97958 0.80064,-2.08367 0.80064,-0.5 0,1.1 -0.36029,3.125 -0.80064,4.5 -0.63397,1.97958 -0.80064,2.08367 -0.80064,0.5 z m 81.83127,1 c 0,-0.55 0.43621,-1.675 0.96937,-2.5 0.53316,-0.825 0.96937,-1.05 0.96937,-0.5 0,0.55 -0.43621,1.675 -0.96937,2.5 -0.53316,0.825 -0.96937,1.05 -0.96937,0.5 z M 7.5642184,167.40202 c -0.9649785,-2.51469 -0.6803104,-3.16355 0.4985339,-1.13634 0.5836903,1.00375 0.8505988,2.03566 0.5931299,2.29313 -0.2574689,0.25747 -0.7487176,-0.26309 -1.0916638,-1.15679 z M 162.94068,165.9997 c 0,-1.06754 0.38499,-2.17893 0.85554,-2.46974 0.47055,-0.29082 0.64309,0.58263 0.38343,1.94098 -0.56402,2.95046 -1.23897,3.23851 -1.23897,0.52876 z M 23.051791,162.82957 c -0.616071,-1.76726 -0.945129,-3.38821 -0.73124,-3.60209 0.213889,-0.21389 0.892947,1.05705 1.509018,2.82431 0.616071,1.76726 0.945129,3.38821 0.73124,3.60209 -0.213889,0.21389 -0.892947,-1.05705 -1.509018,-2.82431 z m 99.204259,-0.89587 c -2.79898,-1.12774 -4.31277,-3.98967 -4.32527,-8.17728 -0.0115,-3.86007 4.24656,-24.60575 4.74404,-23.11331 0.1845,0.55348 -0.58021,5.1171 -1.69935,10.14137 -2.44972,10.99781 -2.58596,16.46217 -0.46336,18.58477 0.86428,0.86429 1.65178,1.6569 1.75,1.76136 0.0982,0.10446 8.05357,0.46284 17.67857,0.79639 l 17.5,0.60647 -16.5,0.14022 c -9.075,0.0771 -17.48308,-0.25588 -18.68463,-0.73999 z M 5.0196272,159.35735 c 0.047984,-1.16495 0.2849403,-1.4019 0.6041666,-0.60417 0.2888706,0.72187 0.2533443,1.58437 -0.078947,1.91667 -0.3322917,0.33229 -0.5686404,-0.25834 -0.5252196,-1.3125 z M 85.14004,156.44068 c 0,-1.1 0.360288,-3.125 0.80064,-4.5 0.633973,-1.97958 0.80064,-2.08367 0.80064,-0.5 0,1.1 -0.360288,3.125 -0.80064,4.5 -0.633973,1.97958 -0.80064,2.08367 -0.80064,0.5 z m 43.04668,-0.22823 c 3.1072,-0.32517 3.84969,-0.85075 4.3538,-3.0819 0.33427,-1.47943 0.9997,-4.03987 1.47873,-5.68987 0.6798,-2.34154 0.74127,-2.01231 0.28007,1.5 -0.89537,6.81873 -1.84284,8.02653 -6.14382,7.8319 l -3.71482,-0.16811 z M 19.44068,151.94068 c -0.379677,-1.72866 -0.481874,-3.35146 -0.227105,-3.60623 0.254769,-0.25477 0.750716,0.97429 1.102105,2.73123 0.833651,4.16825 0.02576,4.97614 -0.875,0.875 z m 104.59968,-0.0833 c 0.0548,-1.87917 0.47506,-4.54167 0.93385,-5.91667 0.53851,-1.61389 0.63238,-0.55056 0.26485,3 -0.65131,6.29209 -1.34653,7.98369 -1.1987,2.91667 z m 119.97927,0.5 c 0.048,-1.16495 0.28494,-1.4019 0.60416,-0.60417 0.28887,0.72187 0.25335,1.58437 -0.0789,1.91667 -0.3323,0.33229 -0.56864,-0.25834 -0.52522,-1.3125 z m -241.0000028,-1 c 0.047984,-1.16495 0.2849403,-1.4019 0.6041666,-0.60417 0.2888706,0.72187 0.2533443,1.58437 -0.078947,1.91667 -0.3322917,0.33229 -0.5686404,-0.25834 -0.5252196,-1.3125 z m 6.9999998,0 c 0.04798,-1.16495 0.284941,-1.4019 0.604167,-0.60417 0.288871,0.72187 0.253344,1.58437 -0.07895,1.91667 -0.332292,0.33229 -0.5686412,-0.25834 -0.52522,-1.3125 z m 218.000003,-1 c 0.048,-1.16495 0.28494,-1.4019 0.60416,-0.60417 0.28887,0.72187 0.25335,1.58437 -0.0789,1.91667 -0.3323,0.33229 -0.56864,-0.25834 -0.52522,-1.3125 z M 9.0985748,146.94068 c 0,-1.375 0.226973,-1.9375 0.504386,-1.25 0.277412,0.6875 0.277412,1.8125 0,2.5 -0.277413,0.6875 -0.504386,0.125 -0.504386,-1.25 z m 78.0568962,0.5 c -0.01254,-1.1 0.555547,-4.25 1.262411,-7 0.706865,-2.75 1.295468,-4.1 1.308007,-3 0.01254,1.1 -0.555547,4.25 -1.262411,7 -0.706865,2.75 -1.295468,4.1 -1.308007,3 z m 141.943099,-1.5 c 0,-1.375 0.22698,-1.9375 0.50439,-1.25 0.27741,0.6875 0.27741,1.8125 0,2.5 -0.27741,0.6875 -0.50439,0.125 -0.50439,-1.25 z m -210.999995,-1 c 0,-1.375 0.226973,-1.9375 0.504386,-1.25 0.277412,0.6875 0.277412,1.8125 0,2.5 -0.277413,0.6875 -0.504386,0.125 -0.504386,-1.25 z m 221.037055,-2.5 c 0.0204,-1.65 0.2445,-2.20394 0.49804,-1.23097 0.25354,0.97297 0.23687,2.32297 -0.0371,3 -0.27393,0.67703 -0.48137,-0.11903 -0.46099,-1.76903 z m -230.9629475,-1.5 c 0,-1.925 0.2057953,-2.7125 0.4573228,-1.75 0.2515276,0.9625 0.2515276,2.5375 0,3.5 -0.2515275,0.9625 -0.4573228,0.175 -0.4573228,-1.75 z m 126.9673575,1.5 c 0,-1.1 0.36029,-3.125 0.80064,-4.5 0.63397,-1.97958 0.80064,-2.08367 0.80064,-0.5 0,1.1 -0.36029,3.125 -0.80064,4.5 -0.63397,1.97958 -0.80064,2.08367 -0.80064,0.5 z m -9,-1 c 0,-1.1 0.36029,-3.125 0.80064,-4.5 0.63397,-1.97958 0.80064,-2.08367 0.80064,-0.5 0,1.1 -0.36029,3.125 -0.80064,4.5 -0.63397,1.97958 -0.80064,2.08367 -0.80064,0.5 z m 104.30064,-17.5 c 0,-10.6102 0.31157,-17.53824 0.69237,-15.39564 0.3808,2.1426 0.69237,9.07064 0.69237,15.39564 0,6.325 -0.31157,13.25304 -0.69237,15.39564 -0.3808,2.1426 -0.69237,-4.78544 -0.69237,-15.39564 z m -213.267997,15 c 0,-1.925 0.205795,-2.7125 0.457323,-1.75 0.251527,0.9625 0.251527,2.5375 0,3.5 -0.251528,0.9625 -0.457323,0.175 -0.457323,-1.75 z m 223.077867,-5.5 c 0.006,-3.3 0.1923,-4.52944 0.41486,-2.73209 0.22256,1.79735 0.21797,4.49735 -0.0102,6 -0.22818,1.50265 -0.41027,0.0321 -0.40466,-3.26791 z m -232.9181494,-9.5 c 0,-7.425 0.1574233,-10.4625 0.3498295,-6.75 0.1924062,3.7125 0.1924062,9.7875 0,13.5 -0.1924062,3.7125 -0.3498295,0.675 -0.3498295,-6.75 z m 8.9864484,0 c 0,-6.325 0.162369,-8.9125 0.360819,-5.75 0.198451,3.1625 0.198451,8.3375 0,11.5 -0.19845,3.1625 -0.360819,0.575 -0.360819,-5.75 z m 73.821191,9.5 c 0,-1.1 0.360288,-3.125 0.80064,-4.5 0.633973,-1.97958 0.80064,-2.08367 0.80064,-0.5 0,1.1 -0.360288,3.125 -0.80064,4.5 -0.633973,1.97958 -0.80064,2.08367 -0.80064,0.5 z m 47,0 c 0,-1.1 0.36029,-3.125 0.80064,-4.5 0.63397,-1.97958 0.80064,-2.08367 0.80064,-0.5 0,1.1 -0.36029,3.125 -0.80064,4.5 -0.63397,1.97958 -0.80064,2.08367 -0.80064,0.5 z m -9,-1 c 0,-1.1 0.36029,-3.125 0.80064,-4.5 0.63397,-1.97958 0.80064,-2.08367 0.80064,-0.5 0,1.1 -0.36029,3.125 -0.80064,4.5 -0.63397,1.97958 -0.80064,2.08367 -0.80064,0.5 z m 118.99559,-2 c 0.0204,-1.65 0.2445,-2.20394 0.49804,-1.23097 0.25354,0.97297 0.23687,2.32297 -0.0371,3 -0.27393,0.67703 -0.48137,-0.11903 -0.46099,-1.76903 z m -246.895286,-6.5 c 0,-3.025 0.1874656,-4.2625 0.4165902,-2.75 0.2291247,1.5125 0.2291247,3.9875 0,5.5 -0.2291246,1.5125 -0.4165902,0.275 -0.4165902,-2.75 z m 122.899696,3.5 c 0,-1.1 0.36029,-3.125 0.80064,-4.5 0.63397,-1.97958 0.80064,-2.08367 0.80064,-0.5 0,1.1 -0.36029,3.125 -0.80064,4.5 -0.63397,1.97958 -0.80064,2.08367 -0.80064,0.5 z m -30.595031,-5 c 0.288752,-2.2 1.378055,-7.375 2.420674,-11.5 1.042619,-4.125 1.65942,-5.7 1.370668,-3.5 -0.288752,2.2 -1.378055,7.375 -2.420674,11.5 -1.042619,4.125 -1.65942,5.7 -1.370668,3.5 z m 47.085431,-0.5 c 0.29752,-2.475 0.74059,-4.8375 0.98461,-5.25 0.24402,-0.4125 8.50424,-0.75 18.35606,-0.75 h 17.91239 l 0.9384,-3.25 c 0.51612,-1.7875 0.97899,-2.43292 1.02859,-1.43426 0.0496,0.99866 -0.37564,2.68616 -0.94499,3.75 -0.96393,1.80111 -2.26027,1.93426 -18.8324,1.93426 h -17.79722 l -1.0932,4.75 -1.0932,4.75 z m -9.53187,1 c 0,-1.375 0.22698,-1.9375 0.50439,-1.25 0.27741,0.6875 0.27741,1.8125 0,2.5 -0.27741,0.6875 -0.50439,0.125 -0.50439,-1.25 z m -4.95853,-4.5 c 0,-1.1 0.36029,-3.125 0.80064,-4.5 0.63397,-1.97958 0.80064,-2.08367 0.80064,-0.5 0,1.1 -0.36029,3.125 -0.80064,4.5 -0.63397,1.97958 -0.80064,2.08367 -0.80064,0.5 z m 5.87959,-0.0833 c 0.048,-1.16495 0.28494,-1.4019 0.60416,-0.60417 0.28887,0.72187 0.25335,1.58437 -0.0789,1.91667 -0.3323,0.33229 -0.56864,-0.25834 -0.52522,-1.3125 z m 109.23092,-3.9167 c 0.006,-3.3 0.1923,-4.52944 0.41486,-2.73209 0.22256,1.79735 0.21797,4.49735 -0.0102,6 -0.22818,1.50265 -0.41027,0.0321 -0.40466,-3.26791 z m 6.88508,3 c 0.0204,-1.65 0.2445,-2.20394 0.49804,-1.23097 0.25354,0.97297 0.23687,2.32297 -0.0371,3 -0.27393,0.67703 -0.48137,-0.11903 -0.46099,-1.76903 z M 66.94068,113.34591 c -2.475,-1.96644 -4.725,-3.83422 -5,-4.15062 -0.972599,-1.119 2.547682,1.11805 6.087091,3.8682 3.102413,2.4106 4.656263,2.83364 11.5,3.13095 l 7.912909,0.34375 -8,0.19154 c -7.791582,0.18655 -8.117235,0.0984 -12.5,-3.38382 z m 21.078947,1.01144 c 0.04798,-1.16495 0.284941,-1.4019 0.604167,-0.60417 0.288871,0.72187 0.253344,1.58437 -0.07895,1.91667 -0.332292,0.33229 -0.568641,-0.25834 -0.52522,-1.3125 z m 44.078943,-0.41667 c 0,-1.375 0.22698,-1.9375 0.50439,-1.25 0.27741,0.6875 0.27741,1.8125 0,2.5 -0.27741,0.6875 -0.50439,0.125 -0.50439,-1.25 z m -114.925887,-5 c 0,-1.925 0.205795,-2.7125 0.457323,-1.75 0.251527,0.9625 0.251527,2.5375 0,3.5 -0.251528,0.9625 -0.457323,0.175 -0.457323,-1.75 z m 71.846944,1.41667 c 0.04798,-1.16495 0.284941,-1.4019 0.604167,-0.60417 0.288871,0.72187 0.253344,1.58437 -0.07895,1.91667 -0.332292,0.33229 -0.568641,-0.25834 -0.52522,-1.3125 z m 38.610813,-3.41667 c 0.29752,-2.475 0.74059,-4.8375 0.98461,-5.25 0.24402,-0.4125 8.49976,-0.75 18.3461,-0.75 h 17.90244 l 1.09241,-4.250002 c 1.55022,-6.031102 2.0836,-6.896919 1.39743,-2.26841 -1.15721,7.805802 -0.38199,7.518412 -20.28033,7.518412 h -17.79722 l -1.0932,4.75 -1.0932,4.75 z m -119.4577575,0 c 0,-1.925 0.2057953,-2.7125 0.4573228,-1.75 0.2515276,0.9625 0.2515276,2.5375 0,3.5 -0.2515275,0.9625 -0.4573228,0.175 -0.4573228,-1.75 z m 170.8810975,1 c -0.0371,-0.825 0.78168,-4.65 1.81947,-8.500002 1.03779,-3.85 1.91724,-6.325 1.95433,-5.5 0.0371,0.825 -0.78168,4.65 -1.81947,8.500002 -1.03779,3.85 -1.91724,6.325 -1.95433,5.5 z m -108.821512,-0.7425 c 3.735374,-0.19293 9.585374,-0.19149 13,0.003 3.414627,0.19468 0.358412,0.35253 -6.791588,0.35078 -7.15,-0.002 -9.943785,-0.16103 -6.208412,-0.35396 z m 81.917392,-0.006 17.70899,-0.2975 0.66105,-3.52373 c 0.36358,-1.93804 0.86106,-3.32372 1.1055,-3.07927 0.24445,0.24444 0.14035,2.06543 -0.23133,4.04663 l -0.67577,3.60237 -18.13871,-0.2254 -18.13871,-0.2254 17.70898,-0.29751 z m 86.98597,-1.7515 c 0.0204,-1.65 0.2445,-2.20394 0.49804,-1.23097 0.25354,0.97297 0.23687,2.32297 -0.0371,3 -0.27393,0.67703 -0.48137,-0.11903 -0.46099,-1.76903 z m 6.884,-0.0833 c 0.048,-1.16495 0.28494,-1.4019 0.60416,-0.60417 0.28887,0.72187 0.25335,1.58437 -0.0789,1.91667 -0.3323,0.33229 -0.56864,-0.25834 -0.52522,-1.3125 z m -227.917053,-2.4167 c -0.0079,-2.42429 2.565342,-11.509136 2.69088,-9.500002 0.03437,0.55 -0.55518,3.475 -1.310101,6.5 -0.754922,3.025002 -1.376273,4.375002 -1.380779,3.000002 z m 210.995993,-1 c 0,-1.375 0.22698,-1.9375 0.50439,-1.25 0.27741,0.6875 0.27741,1.8125 0,2.5 -0.27741,0.6875 -0.50439,0.125 -0.50439,-1.25 z m -219.9999952,-1 c 0,-1.375002 0.226973,-1.937502 0.504386,-1.250002 0.277412,0.687502 0.277412,1.812502 0,2.500002 -0.277413,0.6875 -0.504386,0.125 -0.504386,-1.25 z m 72.8421052,1 -15.5,-0.57942 15.75,-0.21029 c 9.973527,-0.13316 15.75,0.15647 15.75,0.78971 0,0.55 -0.1125,0.90537 -0.25,0.78971 -0.1375,-0.11566 -7.225,-0.47103 -15.75,-0.78971 z M 236.19166,93.305119 C 234.95986,88.5401 231.7574,80.096274 229.07509,74.541063 217.13355,49.809452 199.32659,31.804832 174.44068,19.300192 c -6.05,-3.039997 -9.875,-5.212027 -8.5,-4.826734 5.17296,1.449529 20.73872,10.116615 28.01205,15.597229 15.58093,11.74059 27.90213,26.965626 36.45772,45.050025 4.2251,8.93083 9.02937,23.822546 8.34644,25.871338 -0.17907,0.53721 -1.33342,-2.921911 -2.56523,-7.686931 z m -64.17203,4.052226 c 0.048,-1.164943 0.28494,-1.4019 0.60416,-0.604167 0.28887,0.721875 0.25335,1.584375 -0.0789,1.916667 -0.3323,0.332293 -0.56864,-0.258334 -0.52522,-1.3125 z m 56,0 c 0.048,-1.164943 0.28494,-1.4019 0.60416,-0.604167 0.28887,0.721875 0.25335,1.584375 -0.0789,1.916667 -0.3323,0.332293 -0.56864,-0.258334 -0.52522,-1.3125 z m -225.0000028,-1 c 0.047984,-1.164943 0.2849403,-1.4019 0.6041666,-0.604167 0.2888706,0.721875 0.2533443,1.584375 -0.078947,1.916667 -0.3322917,0.332291 -0.5686404,-0.258334 -0.5252196,-1.3125 z M 10.294425,95.440678 C 11.248239,89.712792 17.035807,75.225321 21.498857,67.393685 33.407964,46.495916 51.099974,29.456308 71.662163,19.080175 81.071837,14.331847 80.597993,15.352784 71.000824,20.505088 53.061215,30.136084 37.904951,43.624721 27.735828,59.009684 20.526066,69.9174 17.650038,75.751409 13.327424,88.237055 c -1.942909,5.611993 -3.307759,8.853623 -3.032999,7.203623 z m 55.845615,1 c 0,-1.1 0.360288,-3.125 0.80064,-4.5 0.633973,-1.979583 0.80064,-2.083666 0.80064,-0.5 0,1.1 -0.360288,3.125 -0.80064,4.5 -0.633973,1.979583 -0.80064,2.083666 -0.80064,0.5 z m 177.87959,-1.083333 c 0.048,-1.164943 0.28494,-1.4019 0.60416,-0.604167 0.28887,0.721875 0.25335,1.584375 -0.0789,1.916667 -0.3323,0.332291 -0.56864,-0.258334 -0.52522,-1.3125 z m -70.97024,-1.416667 c -0.0386,-0.825 0.55595,-3.75 1.32116,-6.5 0.76521,-2.75 1.42285,-4.325 1.46142,-3.5 0.0386,0.825 -0.55595,3.75 -1.32116,6.5 -0.76521,2.75 -1.42285,4.325 -1.46142,3.5 z m 52.60558,-4.214286 c -0.91066,-2.847681 -1.48976,-5.343579 -1.2869,-5.546441 0.20286,-0.202861 1.13554,1.939466 2.07261,4.760727 0.93707,2.821261 1.51617,5.317159 1.28689,5.546441 -0.22928,0.229281 -1.16195,-1.913046 -2.0726,-4.760727 z m 17.36466,1.630953 c 0.048,-1.164943 0.28494,-1.4019 0.60416,-0.604167 0.28887,0.721875 0.25335,1.584375 -0.0789,1.916667 -0.3323,0.332291 -0.56864,-0.258334 -0.52522,-1.3125 z m -60,-1 c 0.048,-1.164943 0.28494,-1.4019 0.60416,-0.604167 0.28887,0.721875 0.25335,1.584375 -0.0789,1.916667 -0.3323,0.332291 -0.56864,-0.258334 -0.52522,-1.3125 z M 5.4397359,87.649946 c 0.7140706,-3.561752 4.5876681,-13.955878 5.0344561,-13.509089 0.186,0.185999 -0.9965482,3.92955 -2.6278847,8.319001 -1.6313361,4.389451 -2.7142932,6.72499 -2.4065714,5.190088 z M 168.01963,88.357345 c 0.048,-1.164943 0.28494,-1.4019 0.60416,-0.604167 0.28887,0.721875 0.25335,1.584375 -0.0789,1.916667 -0.3323,0.332291 -0.56864,-0.258334 -0.52522,-1.3125 z m -100.000003,-1 c 0.04798,-1.164943 0.284941,-1.4019 0.604167,-0.604167 0.288871,0.721875 0.253344,1.584375 -0.07895,1.916667 -0.332292,0.332291 -0.568641,-0.258334 -0.52522,-1.3125 z m 116.000003,-1 c 0.048,-1.164943 0.28494,-1.4019 0.60416,-0.604167 0.28887,0.721875 0.25335,1.584375 -0.0789,1.916667 -0.3323,0.332291 -0.56864,-0.258334 -0.52522,-1.3125 z M 22.971306,85.440678 c 0,-0.55 0.436218,-1.675 0.969374,-2.5 0.533156,-0.825 0.969374,-1.05 0.969374,-0.5 0,0.55 -0.436218,1.675 -0.969374,2.5 -0.533156,0.825 -0.969374,1.05 -0.969374,0.5 z m 146.135644,-1 c -0.0134,-2.128847 2.56479,-10.692313 2.70959,-9 0.0471,0.55 -0.54052,3.25 -1.30573,6 -0.76521,2.75 -1.39695,4.1 -1.40386,3 z m -99.96691,-1 c 0,-1.1 0.360288,-3.125 0.80064,-4.5 0.633973,-1.979583 0.80064,-2.083666 0.80064,-0.5 0,1.1 -0.360288,3.125 -0.80064,4.5 -0.633973,1.979583 -0.80064,2.083666 -0.80064,0.5 z m 113.07569,-4.522356 c -1.15664,-2.737704 -1.8914,-4.977644 -1.63279,-4.977644 0.67599,0 4.60238,9.088692 4.13032,9.560753 -0.21699,0.216994 -1.34088,-1.845405 -2.49753,-4.583109 z m 38.64453,-1.230552 c -3.96397,-8.596252 -13.28238,-21.782938 -20.58169,-29.125576 -11.4225,-11.490312 -23.94345,-19.502222 -40.33789,-25.81143 -4.125,-1.587458 -6.15,-2.608758 -4.5,-2.269556 4.92304,1.012065 16.512,6.147316 24.50876,10.860225 16.36269,9.643377 30.30133,24.37647 39.41495,41.661448 2.62931,4.986774 4.58591,9.261513 4.348,9.499421 -0.23791,0.237907 -1.52137,-1.928632 -2.85213,-4.814532 z m -44.84063,2.669575 c 0.048,-1.164943 0.28494,-1.4019 0.60416,-0.604167 0.28887,0.721875 0.25335,1.584375 -0.0789,1.916667 -0.3323,0.332291 -0.56864,-0.258334 -0.52522,-1.3125 z M 24.953292,80.662161 c -0.02813,-1.73661 6.129252,-12.679399 11.091761,-19.712069 6.723922,-9.528875 16.383154,-19.045143 26.222963,-25.834846 8.083648,-5.57791 22.054535,-12.589328 27.172664,-13.636851 1.65,-0.337704 0.28699,0.470161 -3.02891,1.795257 -14.973044,5.983507 -25.183765,12.505392 -36.489749,23.307065 -8.807054,8.414209 -14.684342,16.108631 -20.718729,27.124525 -2.330563,4.25449 -4.243063,7.385103 -4.25,6.956919 z M 238.56422,78.402019 c -0.96498,-2.514694 -0.68031,-3.163555 0.49853,-1.136338 0.58369,1.003751 0.8506,2.035659 0.59313,2.293128 -0.25747,0.257469 -0.74872,-0.263087 -1.09166,-1.15679 z m -61.46565,-2.461341 c 0,-1.375 0.22698,-1.9375 0.50439,-1.25 0.27741,0.6875 0.27741,1.8125 0,2.5 -0.27741,0.6875 -0.50439,0.125 -0.50439,-1.25 z m -42.01803,-1.5 c -0.0318,-0.55 0.80583,-4.375 1.86147,-8.5 1.21618,-4.752316 1.70596,-5.868806 1.3369,-3.04754 -0.57693,4.410393 -3.08695,13.472661 -3.19837,11.54754 z M 234.86026,69.7048 C 231.09951,61.575722 221.8646,48.017788 214.88549,40.379503 l -6.34001,-6.938825 5.74804,5.5 c 3.16143,3.025 8.36712,9.325 11.5682,14 5.79567,8.464238 12.56762,20.84467 11.81401,21.598282 -0.21774,0.217746 -1.48471,-1.957627 -2.81547,-4.83416 z M 10.954746,72.416463 c -0.02403,-1.749828 8.522656,-16.108026 13.816023,-23.210538 2.773105,-3.720886 8.088003,-9.690247 11.810883,-13.265247 l 6.768874,-6.5 -7.476241,8 c -8.817931,9.435684 -15.200617,18.171588 -20.822865,28.5 -2.245435,4.125 -4.088938,7.039103 -4.096674,6.475785 z m 93.185294,-1.975785 c 0,-1.1 0.36029,-3.125 0.80064,-4.5 0.63397,-1.979583 0.80064,-2.083666 0.80064,-0.5 0,1.1 -0.36029,3.125 -0.80064,4.5 -0.63397,1.979583 -0.80064,2.083666 -0.80064,0.5 z m 41.5623,-2.207261 c 1.24391,-0.239193 3.04391,-0.230112 4,0.02018 0.95609,0.250292 -0.0617,0.445996 -2.26166,0.434897 -2.2,-0.0111 -2.98225,-0.215885 -1.73834,-0.455077 z m -2.68271,-2.876072 c 0.048,-1.164943 0.28494,-1.4019 0.60416,-0.604167 0.28887,0.721875 0.25335,1.584375 -0.0789,1.916667 -0.3323,0.332291 -0.56864,-0.258334 -0.52522,-1.3125 z m 10.12041,-2.916667 c 0,-1.1 0.36029,-3.125 0.80064,-4.5 0.63397,-1.979583 0.80064,-2.083666 0.80064,-0.5 0,1.1 -0.36029,3.125 -0.80064,4.5 -0.63397,1.979583 -0.80064,2.083666 -0.80064,0.5 z m -47,-1 c 0,-1.1 0.36029,-3.125 0.80064,-4.5 0.63397,-1.979583 0.80064,-2.083666 0.80064,-0.5 0,1.1 -0.36029,3.125 -0.80064,4.5 -0.63397,1.979583 -0.80064,2.083666 -0.80064,0.5 z m 38,0 c 0,-1.1 0.36029,-3.125 0.80064,-4.5 0.63397,-1.979583 0.80064,-2.083666 0.80064,-0.5 0,1.1 -0.36029,3.125 -0.80064,4.5 -0.63397,1.979583 -0.80064,2.083666 -0.80064,0.5 z m -5,-5 c 0,-1.1 0.36029,-3.125 0.80064,-4.5 0.63397,-1.979583 0.80064,-2.083666 0.80064,-0.5 0,1.1 -0.36029,3.125 -0.80064,4.5 -0.63397,1.979583 -0.80064,2.083666 -0.80064,0.5 z m 14.30064,-6.234101 c -2.91702,-6.853812 -2.91189,-7.385622 0.0187,-1.939651 1.42841,2.654437 2.45855,5.234081 2.2892,5.732543 -0.16934,0.498462 -1.2079,-1.20834 -2.3079,-3.792892 z m -45.30064,2.234101 c 0,-1.1 0.36029,-3.125 0.80064,-4.5 0.63397,-1.979583 0.80064,-2.083666 0.80064,-0.5 0,1.1 -0.36029,3.125 -0.80064,4.5 -0.63397,1.979583 -0.80064,2.083666 -0.80064,0.5 z m 38,0 c 0,-1.1 0.36029,-3.125 0.80064,-4.5 0.63397,-1.979583 0.80064,-2.083666 0.80064,-0.5 0,1.1 -0.36029,3.125 -0.80064,4.5 -0.63397,1.979583 -0.80064,2.083666 -0.80064,0.5 z m -5.04147,-5.5 c 0,-1.375 0.22698,-1.9375 0.50439,-1.25 0.27741,0.6875 0.27741,1.8125 0,2.5 -0.27741,0.6875 -0.50439,0.125 -0.50439,-1.25 z M 118.19068,43.19737 c 4.2625,-0.187451 11.2375,-0.187451 15.5,0 4.2625,0.187451 0.775,0.34082 -7.75,0.34082 -8.525,0 -12.0125,-0.153369 -7.75,-0.34082 z m 87.15499,-12.506692 -1.90499,-2.25 2.25,1.904988 c 2.11444,1.790218 2.70524,2.595012 1.90499,2.595012 -0.18976,0 -1.20226,-1.0125 -2.25,-2.25 z m -159.90499,-2.75 c 0.995486,-1.1 2.034975,-2 2.309975,-2 0.275,0 -0.314489,0.9 -1.309975,2 -0.995486,1.1 -2.034975,2 -2.309975,2 -0.275,0 0.314489,-0.9 1.309975,-2 z m 154.90499,-1.25 -1.90499,-2.25 2.25,1.904988 c 2.11444,1.790218 2.70524,2.595012 1.90499,2.595012 -0.18976,0 -1.20226,-1.0125 -2.25,-2.25 z M 49.858436,24.577228 c 1.3317,-1.639779 5.082244,-4.119205 5.082244,-3.359792 0,0.190919 -1.4625,1.417767 -3.25,2.72633 -2.011104,1.472254 -2.709553,1.713729 -1.832244,0.633462 z m 145.954684,-1.38655 c -1.24387,-1.586056 -1.2085,-1.621426 0.37756,-0.377555 1.66575,1.306369 2.19548,2.127555 1.37244,2.127555 -0.20765,0 -0.99515,-0.7875 -1.75,-1.75 z m -5.62244,-3.365048 c -3.40851,-2.18287 -4.51156,-3.648752 -1.5,-1.99341 2.29443,1.261163 5.88883,4.040698 5.25,4.059808 -0.275,0.0082 -1.9625,-0.921653 -3.75,-2.066398 z M 96.875817,19.351693 c 2.439323,-0.765186 6.714323,-1.625614 9.500003,-1.912061 3.3792,-0.347479 2.06953,0.142861 -3.93514,1.473314 -10.346605,2.292495 -11.853019,2.411264 -5.564863,0.438747 z m 52.877363,-0.09413 c 0.72187,-0.288871 1.58437,-0.253344 1.91667,0.07895 0.33229,0.332292 -0.25834,0.568641 -1.3125,0.52522 -1.16495,-0.04798 -1.4019,-0.284941 -0.60417,-0.604167 z m -90.8125,-0.746517 c 0,-0.275 0.9,-0.981666 2,-1.570368 1.1,-0.588702 2,-0.845368 2,-0.570368 0,0.275 -0.9,0.981666 -2,1.570368 -1.1,0.588702 -2,0.845368 -2,0.570368 z m 85.75,-0.232649 c 0.6875,-0.277412 1.8125,-0.277412 2.5,0 0.6875,0.277413 0.125,0.504386 -1.25,0.504386 -1.375,0 -1.9375,-0.226973 -1.25,-0.504386 z m -6.5,-1.027045 c 0.9625,-0.251527 2.5375,-0.251527 3.5,0 0.9625,0.251528 0.175,0.457323 -1.75,0.457323 -1.925,0 -2.7125,-0.205795 -1.75,-0.457323 z m -20.5,-1.051071 c 3.4375,-0.195271 9.0625,-0.195271 12.5,0 3.4375,0.195271 0.625,0.355038 -6.25,0.355038 -6.875,0 -9.6875,-0.159767 -6.25,-0.355038 z M 80.11172,15.436304 c 0.862645,-0.862644 15.092302,-5.497737 16.754112,-5.457395 0.866167,0.021026 -2.475152,1.365603 -7.425152,2.987948 -9.464522,3.101964 -10.140381,3.280869 -9.32896,2.469447 z m 98.82896,-1.995626 c -2.475,-1.325294 -4.14457,-2.429959 -3.71016,-2.454813 1.06195,-0.06076 8.71016,3.868766 8.71016,4.475137 0,0.662489 0.0415,0.679252 -5,-2.020324 z m -29,-3 c -2.475,-0.717007 -3.6,-1.313245 -2.5,-1.324973 1.1,-0.01173 3.8,0.571909 6,1.296971 5.17862,1.706737 2.37224,1.729189 -3.5,0.028 z m -49,-1.450968 c 2.4984,-0.8491285 8.70411,-1.3799426 7.91667,-0.677163 -0.22917,0.2045279 -2.66667,0.631736 -5.41667,0.949352 -3.37192,0.389446 -4.18596,0.300817 -2.5,-0.272189 z m 68,-0.049032 c -0.825,-0.5331559 -1.05,-0.9693745 -0.5,-0.9693745 0.55,0 1.675,0.4362186 2.5,0.9693745 0.825,0.533156 1.05,0.969374 0.5,0.969374 -0.55,0 -1.675,-0.436218 -2.5,-0.969374 z m -28.75,-0.6893255 c 0.9625,-0.2515276 2.5375,-0.2515276 3.5,0 0.9625,0.2515275 0.175,0.4573228 -1.75,0.4573228 -1.925,0 -2.7125,-0.2057953 -1.75,-0.4573228 z m -23.5,-1.0531811 c 3.9875,-0.1898119 10.5125,-0.1898119 14.5,0 3.9875,0.1898119 0.725,0.3451126 -7.25,0.3451126 -7.975,0 -11.2375,-0.1553007 -7.25,-0.3451126 z M 87.75318,5.257564 c 0.721875,-0.2888706 1.584375,-0.2533443 1.916667,0.078947 0.332291,0.3322917 -0.258334,0.5686404 -1.3125,0.5252193 -1.164943,-0.047984 -1.4019,-0.28494 -0.604167,-0.6041663 z m 31.9375,-5.0490911 c 2.3375,-0.2105348 6.1625,-0.2105348 8.5,0 2.3375,0.2105349 0.425,0.3827907 -4.25,0.3827907 -4.675,0 -6.5875,-0.1722558 -4.25,-0.3827907 z"
     style="fill:#15449a" />
  <path
     inkscape:connector-curvature="0"
     id="path3717"
     d="m 113.69068,240.2784 c 0.6875,-0.27741 1.8125,-0.27741 2.5,0 0.6875,0.27741 0.125,0.50439 -1.25,0.50439 -1.375,0 -1.9375,-0.22698 -1.25,-0.50439 z m 18,0 c 0.6875,-0.27741 1.8125,-0.27741 2.5,0 0.6875,0.27741 0.125,0.50439 -1.25,0.50439 -1.375,0 -1.9375,-0.22698 -1.25,-0.50439 z m -25.9375,-1.02083 c 0.72187,-0.28887 1.58437,-0.25335 1.91667,0.0789 0.33229,0.33229 -0.25834,0.56864 -1.3125,0.52522 -1.16495,-0.048 -1.4019,-0.28494 -0.60417,-0.60416 z m 41,-1 c 0.72187,-0.28887 1.58437,-0.25335 1.91667,0.0789 0.33229,0.33229 -0.25834,0.56864 -1.3125,0.52522 -1.16495,-0.048 -1.4019,-0.28494 -0.60417,-0.60416 z m -31.0625,-7.02262 c 1.2375,-0.23836 3.2625,-0.23836 4.5,0 1.2375,0.23835 0.225,0.43337 -2.25,0.43337 -2.475,0 -3.4875,-0.19502 -2.25,-0.43337 z m 12,0 c 1.2375,-0.23836 3.2625,-0.23836 4.5,0 1.2375,0.23835 0.225,0.43337 -2.25,0.43337 -2.475,0 -3.4875,-0.19502 -2.25,-0.43337 z m -20.9375,-0.97738 c 0.72187,-0.28887 1.58437,-0.25335 1.91667,0.0789 0.33229,0.33229 -0.25834,0.56864 -1.3125,0.52522 -1.16495,-0.048 -1.4019,-0.28494 -0.60417,-0.60416 z m 33,0 c 0.72187,-0.28887 1.58437,-0.25335 1.91667,0.0789 0.33229,0.33229 -0.25834,0.56864 -1.3125,0.52522 -1.16495,-0.048 -1.4019,-0.28494 -0.60417,-0.60416 z m -68.37137,-1.87206 c -1.830306,-1.46637 -1.798398,-1.48719 0.55887,-0.36454 3.061032,1.45781 3.628339,1.91971 2.357796,1.91971 -0.536545,0 -1.849045,-0.69982 -2.916666,-1.55517 z m 104.55887,0.12554 c 0,-0.275 0.9,-0.98167 2,-1.57037 1.1,-0.5887 2,-0.84537 2,-0.57037 0,0.275 -0.9,0.98167 -2,1.57037 -1.1,0.5887 -2,0.84537 -2,0.57037 z M 57.813125,220.19068 c -1.243871,-1.58606 -1.208501,-1.62143 0.377555,-0.37756 0.9625,0.75485 1.75,1.54235 1.75,1.75 0,0.82304 -0.821186,0.29331 -2.127555,-1.37244 z m 16.877555,0.17803 c -3.877216,-2.10343 -3.438088,-2.82933 0.5,-0.82653 3.769524,1.91707 4.436654,2.41393 3.166667,2.35846 -0.504167,-0.022 -2.154167,-0.71139 -3.666667,-1.53193 z m 116.25,-0.80559 c 0,-0.20765 0.7875,-0.99515 1.75,-1.75 1.58606,-1.24387 1.62143,-1.2085 0.37756,0.37756 -1.30637,1.66575 -2.12756,2.19548 -2.12756,1.37244 z M 53.813125,217.19068 c -1.243871,-1.58606 -1.208501,-1.62143 0.377555,-0.37756 0.9625,0.75485 1.75,1.54235 1.75,1.75 0,0.82304 -0.821186,0.29331 -2.127555,-1.37244 z m 142.627555,-2.25 c 0.99549,-1.1 2.03498,-2 2.30998,-2 0.275,0 -0.31449,0.9 -1.30998,2 -0.99549,1.1 -2.03498,2 -2.30998,2 -0.275,0 0.31449,-0.9 1.30998,-2 z m -147.095012,-1.25 -1.904988,-2.25 2.25,1.90499 c 2.114445,1.79022 2.705241,2.59501 1.904988,2.59501 -0.189757,0 -1.202257,-1.0125 -2.25,-2.25 z m 9.467457,-3.5 c -1.243871,-1.58606 -1.208501,-1.62143 0.377555,-0.37756 1.665748,1.30637 2.195479,2.12756 1.372445,2.12756 -0.207656,0 -0.995156,-0.7875 -1.75,-1.75 z m 128.127555,1.37244 c 0,-0.20765 0.7875,-0.99515 1.75,-1.75 1.58606,-1.24387 1.62143,-1.2085 0.37756,0.37756 -1.30637,1.66575 -2.12756,2.19548 -2.12756,1.37244 z m 19,-5.12244 c 2.98742,-3.025 5.65668,-5.5 5.93168,-5.5 0.275,0 -1.94426,2.475 -4.93168,5.5 -2.98742,3.025 -5.65668,5.5 -5.93168,5.5 -0.275,0 1.94426,-2.475 4.93168,-5.5 z m -165,0 c -2.429029,-2.475 -4.191416,-4.5 -3.916416,-4.5 0.275,0 2.487387,2.025 4.916416,4.5 2.429029,2.475 4.191416,4.5 3.916416,4.5 -0.275,0 -2.487387,-2.025 -4.916416,-4.5 z m 152,0 c 1.29175,-1.375 2.57363,-2.5 2.84863,-2.5 0.275,0 -0.55688,1.125 -1.84863,2.5 -1.29175,1.375 -2.57363,2.5 -2.84863,2.5 -0.275,0 0.55688,-1.125 1.84863,-2.5 z m -140.075686,-1.25 -2.424314,-2.75 2.75,2.42431 c 2.570289,2.26589 3.208588,3.07569 2.424314,3.07569 -0.179127,0 -1.416627,-1.2375 -2.75,-2.75 z m 63.344716,0.057 c 0.97297,-0.25354 2.32297,-0.23687 3,0.0371 0.67703,0.27393 -0.11903,0.48137 -1.76903,0.46099 -1.65,-0.0204 -2.20394,-0.2445 -1.23097,-0.49804 z m 81.73097,-2.61991 c 0,-0.1721 1.4625,-1.6346 3.25,-3.25 l 3.25,-2.93709 -2.93709,3.25 c -2.73778,3.02946 -3.56291,3.70965 -3.56291,2.93709 z m -164.595012,-4.93709 -1.904988,-2.25 2.25,1.90499 c 1.2375,1.04774 2.25,2.06024 2.25,2.25 0,0.80025 -0.804794,0.20945 -2.595012,-1.90499 z m 181.095012,-0.75 c 0.99549,-1.1 2.03498,-2 2.30998,-2 0.275,0 -0.31449,0.9 -1.30998,2 -0.99549,1.1 -2.03498,2 -2.30998,2 -0.275,0 0.31449,-0.9 1.30998,-2 z m -172.062909,-2.25 -2.937091,-3.25 3.25,2.93709 c 1.7875,1.6154 3.25,3.0779 3.25,3.25 0,0.77256 -0.825128,0.0924 -3.562909,-2.93709 z m 47.487223,-0.5 -2.424314,-2.75 2.75,2.42431 c 2.570289,2.26589 3.208588,3.07569 2.424314,3.07569 -0.179127,0 -1.416627,-1.2375 -2.75,-2.75 z m 21.344716,2.05701 c 0.97297,-0.25354 2.32297,-0.23687 3,0.0371 0.67703,0.27393 -0.11903,0.48137 -1.76903,0.46099 -1.65,-0.0204 -2.20394,-0.2445 -1.23097,-0.49804 z m 94.73097,-2.80701 c 1.29175,-1.375 2.57363,-2.5 2.84863,-2.5 0.275,0 -0.55688,1.125 -1.84863,2.5 -1.29175,1.375 -2.57363,2.5 -2.84863,2.5 -0.275,0 0.55688,-1.125 1.84863,-2.5 z m -176.127555,-0.25 c -1.243871,-1.58606 -1.208501,-1.62143 0.377555,-0.37756 0.9625,0.75485 1.75,1.54235 1.75,1.75 0,0.82304 -0.821186,0.29331 -2.127555,-1.37244 z m 127.206505,-0.83333 c 0.048,-1.16495 0.28494,-1.4019 0.60416,-0.60417 0.28887,0.72187 0.25335,1.58437 -0.0789,1.91667 -0.3323,0.33229 -0.56864,-0.25834 -0.52522,-1.3125 z m 59.92105,1.20577 c 0,-0.20765 0.7875,-0.99515 1.75,-1.75 1.58606,-1.24387 1.62143,-1.2085 0.37756,0.37756 -1.30637,1.66575 -2.12756,2.19548 -2.12756,1.37244 z m -105.73097,-3.31543 c 0.97297,-0.25354 2.32297,-0.23687 3,0.0371 0.67703,0.27393 -0.11903,0.48137 -1.76903,0.46099 -1.65,-0.0204 -2.20394,-0.2445 -1.23097,-0.49804 z m -74.396585,-2.05701 c -1.243871,-1.58606 -1.208501,-1.62143 0.377555,-0.37756 0.9625,0.75485 1.75,1.54235 1.75,1.75 0,0.82304 -0.821186,0.29331 -2.127555,-1.37244 z m 172.127555,1.37244 c 0,-0.20765 0.7875,-0.99515 1.75,-1.75 1.58606,-1.24387 1.62143,-1.2085 0.37756,0.37756 -1.30637,1.66575 -2.12756,2.19548 -2.12756,1.37244 z m -118.562909,-7.87244 -2.937091,-3.25 3.25,2.93709 c 1.7875,1.6154 3.25,3.0779 3.25,3.25 0,0.77256 -0.825128,0.0924 -3.562909,-2.93709 z m -58.437091,-0.75 c -0.588702,-1.1 -0.845368,-2 -0.570368,-2 0.275,0 0.981666,0.9 1.570368,2 0.588702,1.1 0.845368,2 0.570368,2 -0.275,0 -0.981666,-0.9 -1.570368,-2 z m 194,-1 c 0.5887,-1.1 1.29537,-2 1.57037,-2 0.275,0 0.0183,0.9 -0.57037,2 -0.5887,1.1 -1.29537,2 -1.57037,2 -0.275,0 -0.0183,-0.9 0.57037,-2 z m -9,-2 c 0.5887,-1.1 1.29537,-2 1.57037,-2 0.275,0 0.0183,0.9 -0.57037,2 -0.5887,1.1 -1.29537,2 -1.57037,2 -0.275,0 -0.0183,-0.9 0.57037,-2 z M 19.399561,176.87415 c -0.362533,-0.58659 -0.444683,-1.281 -0.182555,-1.54313 0.262128,-0.26213 0.743066,0.21781 1.068751,1.06653 0.676184,1.76211 0.09985,2.07206 -0.886196,0.4766 z m 7.993063,-4.0264 c -0.879679,-1.70111 -1.421886,-3.27046 -1.204904,-3.48744 0.216981,-0.21698 1.142882,1.17483 2.057557,3.09293 2.056583,4.3127 1.344013,4.64239 -0.852653,0.39451 z m 194.578686,-4.40707 c 0,-0.55 0.43621,-1.675 0.96937,-2.5 0.53316,-0.825 0.96937,-1.05 0.96937,-0.5 0,0.55 -0.43621,1.675 -0.96937,2.5 -0.53316,0.825 -0.96937,1.05 -0.96937,0.5 z m -58.95168,-2.08333 c 0.048,-1.16495 0.28494,-1.4019 0.60416,-0.60417 0.28887,0.72187 0.25335,1.58437 -0.0789,1.91667 -0.3323,0.33229 -0.56864,-0.25834 -0.52522,-1.3125 z m 4.54459,-0.95533 c -0.96498,-2.51469 -0.68031,-3.16355 0.49853,-1.13634 0.58369,1.00375 0.8506,2.03566 0.59313,2.29313 -0.25747,0.25747 -0.74872,-0.26309 -1.09166,-1.15679 z m -83.544593,-4.04467 c 0.04798,-1.16495 0.284941,-1.4019 0.604167,-0.60417 0.288871,0.72187 0.253344,1.58437 -0.07895,1.91667 -0.332292,0.33229 -0.568641,-0.25834 -0.52522,-1.3125 z m 48.718533,0.83858 c 4.56362,-0.18572 11.76362,-0.18468 16,0.002 4.23639,0.18698 0.50252,0.33893 -8.29748,0.33766 -8.8,-0.001 -12.26613,-0.15425 -7.70252,-0.33996 z m -5.52845,-5.94824 c 0.97297,-0.25354 2.32297,-0.23687 3,0.0371 0.67703,0.27393 -0.11903,0.48137 -1.76903,0.46099 -1.65,-0.0204 -2.20394,-0.2445 -1.23097,-0.49804 z m -9.19008,-5.89034 c 0.048,-1.16495 0.28494,-1.4019 0.60416,-0.60417 0.28887,0.72187 0.25335,1.58437 -0.0789,1.91667 -0.3323,0.33229 -0.56864,-0.25834 -0.52522,-1.3125 z m 111,-4 c 0.048,-1.16495 0.28494,-1.4019 0.60416,-0.60417 0.28887,0.72187 0.25335,1.58437 -0.0789,1.91667 -0.3323,0.33229 -0.56864,-0.25834 -0.52522,-1.3125 z m 10,-4 c 0.048,-1.16495 0.28494,-1.4019 0.60416,-0.60417 0.28887,0.72187 0.25335,1.58437 -0.0789,1.91667 -0.3323,0.33229 -0.56864,-0.25834 -0.52522,-1.3125 z m -231.0000028,-1 c 0.047984,-1.16495 0.2849403,-1.4019 0.6041666,-0.60417 0.2888706,0.72187 0.2533443,1.58437 -0.078947,1.91667 -0.3322917,0.33229 -0.5686404,-0.25834 -0.5252196,-1.3125 z m 118.0000028,0 c 0.048,-1.16495 0.28494,-1.4019 0.60416,-0.60417 0.28887,0.72187 0.25335,1.58437 -0.0789,1.91667 -0.33229,0.33229 -0.56864,-0.25834 -0.52522,-1.3125 z m 104,-1 c 0.048,-1.16495 0.28494,-1.4019 0.60416,-0.60417 0.28887,0.72187 0.25335,1.58437 -0.0789,1.91667 -0.3323,0.33229 -0.56864,-0.25834 -0.52522,-1.3125 z m -213.000003,-1 c 0.04798,-1.16495 0.284941,-1.4019 0.604167,-0.60417 0.288871,0.72187 0.253344,1.58437 -0.07895,1.91667 -0.332292,0.33229 -0.568641,-0.25834 -0.52522,-1.3125 z m 223.078943,-5.41667 c 0,-1.375 0.22698,-1.9375 0.50439,-1.25 0.27741,0.6875 0.27741,1.8125 0,2.5 -0.27741,0.6875 -0.50439,0.125 -0.50439,-1.25 z m -232.9629415,-1.5 c 0.02038,-1.65 0.2444986,-2.20394 0.498042,-1.23097 0.2535434,0.97297 0.2368691,2.32297 -0.037054,3 -0.2739231,0.67703 -0.4813677,-0.11903 -0.460988,-1.76903 z m 82.8839985,0.91667 c 0.04798,-1.16495 0.284941,-1.4019 0.604167,-0.60417 0.288871,0.72187 0.253344,1.58437 -0.07895,1.91667 -0.332292,0.33229 -0.568641,-0.25834 -0.52522,-1.3125 z m 141.153053,-1.41667 c 0,-1.925 0.2058,-2.7125 0.45733,-1.75 0.25152,0.9625 0.25152,2.5375 0,3.5 -0.25153,0.9625 -0.45733,0.175 -0.45733,-1.75 z m -214.871504,-8 c 0,-5.225 0.168545,-7.3625 0.374543,-4.75 0.205999,2.6125 0.205999,6.8875 0,9.5 -0.205998,2.6125 -0.374543,0.475 -0.374543,-4.75 z m 105.718454,7.41667 c 0.048,-1.16495 0.28494,-1.4019 0.60416,-0.60417 0.28887,0.72187 0.25335,1.58437 -0.0789,1.91667 -0.3323,0.33229 -0.56864,-0.25834 -0.52522,-1.3125 z m 16,-3 c 0.048,-1.16495 0.28494,-1.4019 0.60416,-0.60417 0.28887,0.72187 0.25335,1.58437 -0.0789,1.91667 -0.3323,0.33229 -0.56864,-0.25834 -0.52522,-1.3125 z m -14,-6 c 0.048,-1.16495 0.28494,-1.4019 0.60416,-0.60417 0.28887,0.72187 0.25335,1.58437 -0.0789,1.91667 -0.3323,0.33229 -0.56864,-0.25834 -0.52522,-1.3125 z m 107.15305,-6.41667 c 0,-1.925 0.2058,-2.7125 0.45733,-1.75 0.25152,0.9625 0.25152,2.5375 0,3.5 -0.25153,0.9625 -0.45733,0.175 -0.45733,-1.75 z m -224.0370515,-0.5 c 0.02038,-1.65 0.2444986,-2.20394 0.498042,-1.23097 0.2535434,0.97297 0.2368691,2.32297 -0.037054,3 -0.2739231,0.67703 -0.4813677,-0.11903 -0.460988,-1.76903 z m 232.9629415,-1.5 c 0,-1.375 0.22698,-1.9375 0.50439,-1.25 0.27741,0.6875 0.27741,1.8125 0,2.5 -0.27741,0.6875 -0.50439,0.125 -0.50439,-1.25 z m -174.285445,-1.75 c -1.243871,-1.58606 -1.208501,-1.62143 0.377555,-0.37756 0.9625,0.75485 1.75,1.54235 1.75,1.75 0,0.82304 -0.821186,0.29331 -2.127555,-1.37244 z m -48.793498,-3.83333 c 0.04798,-1.16495 0.284941,-1.4019 0.604167,-0.60417 0.288871,0.72187 0.253344,1.58437 -0.07895,1.91667 -0.332292,0.33229 -0.568641,-0.25834 -0.52522,-1.3125 z m -8.9999998,-2 c 0.047984,-1.16495 0.2849403,-1.4019 0.6041666,-0.60417 0.2888706,0.72187 0.2533443,1.58437 -0.078947,1.91667 -0.3322917,0.33229 -0.5686404,-0.25834 -0.5252196,-1.3125 z m 160.4927528,0.83333 c 0.49777,-0.4125 1.24088,-1.2 1.65135,-1.75 0.42591,-0.57068 0.7529,-0.24868 0.76164,0.75 0.009,0.97279 -0.72489,1.75 -1.65136,1.75 -0.91666,0 -1.2594,-0.3375 -0.76163,-0.75 z m 70.50725,-1.83333 c 0.048,-1.16495 0.28494,-1.4019 0.60416,-0.60417 0.28887,0.72187 0.25335,1.58437 -0.0789,1.91667 -0.3323,0.33229 -0.56864,-0.25834 -0.52522,-1.3125 z M 66.019627,96.357345 c 0.04798,-1.164943 0.284941,-1.4019 0.604167,-0.604167 0.288871,0.721875 0.253344,1.584375 -0.07895,1.916667 -0.332292,0.332291 -0.568641,-0.258334 -0.52522,-1.3125 z m 101.000003,-4 c 0.048,-1.164943 0.28494,-1.4019 0.60416,-0.604167 0.28887,0.721875 0.25335,1.584375 -0.0789,1.916667 -0.3323,0.332291 -0.56864,-0.258334 -0.52522,-1.3125 z m 55.54459,-10.955326 c -0.96498,-2.514694 -0.68031,-3.163555 0.49853,-1.136338 0.58369,1.003751 0.8506,2.035659 0.59313,2.293128 -0.25747,0.257469 -0.74872,-0.263087 -1.09166,-1.15679 z M 25.94068,78.557685 c 0,-1.073186 2.975379,-6.617007 3.55136,-6.617007 0.275,0 -0.243785,1.4625 -1.152856,3.25 -1.856235,3.6499 -2.398504,4.411135 -2.398504,3.367007 z m -8,-4.55799 c 0,-0.517541 0.444846,-1.215913 0.988546,-1.551938 0.56686,-0.350339 0.734507,0.05106 0.393011,0.940983 -0.664791,1.732417 -1.381557,2.049387 -1.381557,0.610955 z m 199,-4.059017 c -0.5887,-1.1 -0.84537,-2 -0.57037,-2 0.275,0 0.98167,0.9 1.57037,2 0.5887,1.1 0.84537,2 0.57037,2 -0.275,0 -0.98167,-0.9 -1.57037,-2 z m 9,-2 c -0.5887,-1.1 -0.84537,-2 -0.57037,-2 0.275,0 0.98167,0.9 1.57037,2 0.5887,1.1 0.84537,2 0.57037,2 -0.275,0 -0.98167,-0.9 -1.57037,-2 z M 106.01963,61.357345 c 0.048,-1.164943 0.28494,-1.4019 0.60416,-0.604167 0.28887,0.721875 0.25335,1.584375 -0.0789,1.916667 -0.3323,0.332291 -0.56864,-0.258334 -0.52522,-1.3125 z M 25.910874,59.996372 c 0.572308,-1.069369 1.534818,-2.249775 2.13891,-2.623124 0.604092,-0.373349 0.324918,0.501588 -0.620387,1.944306 -2.001622,3.054861 -3.038114,3.518198 -1.518523,0.678818 z m 10.029806,0.566751 c 0,-0.207656 0.7875,-0.995156 1.75,-1.75 1.586056,-1.243871 1.621426,-1.208501 0.377555,0.377555 -1.306369,1.665748 -2.127555,2.195479 -2.127555,1.372445 z m 173.87244,-1.372445 c -1.24387,-1.586056 -1.2085,-1.621426 0.37756,-0.377555 1.66575,1.306369 2.19548,2.127555 1.37244,2.127555 -0.20765,0 -0.99515,-0.7875 -1.75,-1.75 z M 38.94068,56.627769 c 0,-0.1721 1.4625,-1.6346 3.25,-3.25 l 3.25,-2.937091 -2.937091,3.25 c -2.737781,3.029455 -3.562909,3.709652 -3.562909,2.937091 z m 167.40499,-1.937091 -1.90499,-2.25 2.25,1.904988 c 2.11444,1.790218 2.70524,2.595012 1.90499,2.595012 -0.18976,0 -1.20226,-1.0125 -2.25,-2.25 z m 11.46745,0.5 c -1.24387,-1.586056 -1.2085,-1.621426 0.37756,-0.377555 0.9625,0.754844 1.75,1.542344 1.75,1.75 0,0.823034 -0.82119,0.293303 -2.12756,-1.372445 z M 28.94068,55.563123 c 0,-0.207656 0.7875,-0.995156 1.75,-1.75 1.586056,-1.243871 1.621426,-1.208501 0.377555,0.377555 -1.306369,1.665748 -2.127555,2.195479 -2.127555,1.372445 z m 111.07895,-4.205778 c 0.048,-1.164943 0.28494,-1.4019 0.60416,-0.604167 0.28887,0.721875 0.25335,1.584375 -0.0789,1.916667 -0.3323,0.332291 -0.56864,-0.258334 -0.52522,-1.3125 z m 74.32604,-0.666667 -1.90499,-2.25 2.25,1.904988 c 2.11444,1.790218 2.70524,2.595012 1.90499,2.595012 -0.18976,0 -1.20226,-1.0125 -2.25,-2.25 z m -180.90499,-0.75 c 0.995486,-1.1 2.034975,-2 2.309975,-2 0.275,0 -0.314489,0.9 -1.309975,2 -0.995486,1.1 -2.034975,2 -2.309975,2 -0.275,0 0.314489,-0.9 1.309975,-2 z m 166.44617,-2.75 -3.44617,-3.75 3.75,3.446167 c 2.0625,1.895392 3.75,3.582892 3.75,3.75 0,0.76362 -0.84622,0.04425 -4.05383,-3.446167 z m -48.32263,-0.788659 c -0.96498,-2.514694 -0.68031,-3.163555 0.49853,-1.136338 0.58369,1.003751 0.8506,2.035659 0.59313,2.293128 -0.25747,0.257469 -0.74872,-0.263087 -1.09166,-1.15679 z m 54.34757,-5.211341 -6.47111,-6.75 6.75,6.471112 c 3.7125,3.559111 6.75,6.596611 6.75,6.75 0,0.736017 -1.01824,-0.201425 -7.02889,-6.471112 z m -165.012902,0.5 c 2.452014,-2.6125 4.589514,-4.75 4.75,-4.75 0.750886,0 -0.04302,0.897827 -4.458208,5.041792 l -4.75,4.458208 z m 10.041792,2.937091 c 0,-0.1721 1.4625,-1.6346 3.25,-3.25 l 3.25,-2.937091 -2.937091,3.25 c -2.737781,3.029455 -3.562909,3.709652 -3.562909,2.937091 z m 67.75,-1.429598 c 3.9875,-0.189811 10.5125,-0.189811 14.5,0 3.9875,0.189812 0.725,0.345113 -7.25,0.345113 -7.975,0 -11.2375,-0.155301 -7.25,-0.345113 z m 73.65499,-2.507493 -1.90499,-2.25 2.25,1.904988 c 2.11444,1.790218 2.70524,2.595012 1.90499,2.595012 -0.18976,0 -1.20226,-1.0125 -2.25,-2.25 z M 57.94068,38.563123 c 0,-0.207656 0.7875,-0.995156 1.75,-1.75 1.586056,-1.243871 1.621426,-1.208501 0.377555,0.377555 -1.306369,1.665748 -2.127555,2.195479 -2.127555,1.372445 z m 129.87244,-1.372445 c -1.24387,-1.586056 -1.2085,-1.621426 0.37756,-0.377555 1.66575,1.306369 2.19548,2.127555 1.37244,2.127555 -0.20765,0 -0.99515,-0.7875 -1.75,-1.75 z m -138.37244,-3.25 c 0.995486,-1.1 2.034975,-2 2.309975,-2 0.275,0 -0.314489,0.9 -1.309975,2 -0.995486,1.1 -2.034975,2 -2.309975,2 -0.275,0 0.314489,-0.9 1.309975,-2 z m 146.90499,-1.25 -1.90499,-2.25 2.25,1.904988 c 2.11444,1.790218 2.70524,2.595012 1.90499,2.595012 -0.18976,0 -1.20226,-1.0125 -2.25,-2.25 z m -4.53255,-3.5 c -1.24387,-1.586056 -1.2085,-1.621426 0.37756,-0.377555 1.66575,1.306369 2.19548,2.127555 1.37244,2.127555 -0.20765,0 -0.99515,-0.7875 -1.75,-1.75 z M 56.94068,28.563123 c 0,-0.207656 0.7875,-0.995156 1.75,-1.75 1.586056,-1.243871 1.621426,-1.208501 0.377555,0.377555 -1.306369,1.665748 -2.127555,2.195479 -2.127555,1.372445 z m 14.44113,-9.067279 c 1.067621,-0.855341 2.380121,-1.555166 2.916666,-1.555166 1.270543,0 0.703236,0.4619 -2.357796,1.919712 -2.357268,1.122645 -2.389176,1.101832 -0.55887,-0.364546 z m 35.37137,-2.23828 c 0.72187,-0.288871 1.58437,-0.253344 1.91667,0.07895 0.33229,0.332292 -0.25834,0.568641 -1.3125,0.52522 -1.16495,-0.04798 -1.4019,-0.284941 -0.60417,-0.604167 z m 33,0 c 0.72187,-0.288871 1.58437,-0.253344 1.91667,0.07895 0.33229,0.332292 -0.25834,0.568641 -1.3125,0.52522 -1.16495,-0.04798 -1.4019,-0.284941 -0.60417,-0.604167 z m -24.0625,-1.022619 c 1.2375,-0.238353 3.2625,-0.238353 4.5,0 1.2375,0.238353 0.225,0.433369 -2.25,0.433369 -2.475,0 -3.4875,-0.195016 -2.25,-0.433369 z m 13.01166,-0.0015 c 1.24391,-0.239193 3.04391,-0.230112 4,0.02018 0.95609,0.250292 -0.0617,0.445996 -2.26166,0.434897 -2.2,-0.0111 -2.98225,-0.215885 -1.73834,-0.455078 z M 105.75318,8.257564 c 0.72187,-0.2888706 1.58437,-0.2533443 1.91667,0.078947 0.33229,0.3322917 -0.25834,0.5686404 -1.3125,0.5252193 -1.16495,-0.047984 -1.4019,-0.2849403 -0.60417,-0.6041663 z m 7.9375,-0.9791667 c 0.6875,-0.2774123 1.8125,-0.2774123 2.5,0 0.6875,0.2774123 0.125,0.504386 -1.25,0.504386 -1.375,0 -1.9375,-0.2269737 -1.25,-0.504386 z m 18.51903,-0.03071 c 0.97297,-0.2535434 2.32297,-0.2368691 3,0.037054 0.67703,0.2739231 -0.11903,0.4813677 -1.76903,0.460988 -1.65,-0.02038 -2.20394,-0.2444986 -1.23097,-0.498042 z"
     style="fill:#093a96" />
</svg>
